<svg width="1020" height="550"><g transform="translate(40,20)"><g class="axis" transform="translate(0,500)"><g fill="none" font-size="10" font-family="sans-serif" text-anchor="middle"><path class="domain" stroke="#000" d="M0.5,6V0.5H960.5V6"></path><g class="tick" transform="translate(0, 0)"><line stroke="#000" y2="6" x1="0.5" x2="0.5"></line><text fill="#000" y="9" x="0.5" dy="0.71em">0</text></g><g class="tick" transform="translate(100, 0)"><line stroke="#000" y2="6" x1="0.5" x2="0.5"></line><text fill="#000" y="9" x="0.5" dy="0.71em">100</text></g><g class="tick" transform="translate(200, 0)"><line stroke="#000" y2="6" x1="0.5" x2="0.5"></line><text fill="#000" y="9" x="0.5" dy="0.71em">200</text></g><g class="tick" transform="translate(300, 0)"><line stroke="#000" y2="6" x1="0.5" x2="0.5"></line><text fill="#000" y="9" x="0.5" dy="0.71em">300</text></g><g class="tick" transform="translate(400, 0)"><line stroke="#000" y2="6" x1="0.5" x2="0.5"></line><text fill="#000" y="9" x="0.5" dy="0.71em">400</text></g><g class="tick" transform="translate(500.00000000000006, 0)"><line stroke="#000" y2="6" x1="0.5" x2="0.5"></line><text fill="#000" y="9" x="0.5" dy="0.71em">500</text></g><g class="tick" transform="translate(600, 0)"><line stroke="#000" y2="6" x1="0.5" x2="0.5"></line><text fill="#000" y="9" x="0.5" dy="0.71em">600</text></g><g class="tick" transform="translate(700, 0)"><line stroke="#000" y2="6" x1="0.5" x2="0.5"></line><text fill="#000" y="9" x="0.5" dy="0.71em">700</text></g><g class="tick" transform="translate(800, 0)"><line stroke="#000" y2="6" x1="0.5" x2="0.5"></line><text fill="#000" y="9" x="0.5" dy="0.71em">800</text></g><g class="tick" transform="translate(900, 0)"><line stroke="#000" y2="6" x1="0.5" x2="0.5"></line><text fill="#000" y="9" x="0.5" dy="0.71em">900</text></g></g></g><g class="axis" transform="translate(0,0)"><g fill="none" font-size="10" font-family="sans-serif" text-anchor="end"><path class="domain" stroke="#000" d="M-6,500.5H0.5V0.5H-6"></path><g class="tick" transform="translate(0, 500)"><line stroke="#000" x2="-6" y1="0.5" y2="0.5"></line><text fill="#000" x="-9" y="0.5" dy="0.32em">0</text></g><g class="tick" transform="translate(0, 450)"><line stroke="#000" x2="-6" y1="0.5" y2="0.5"></line><text fill="#000" x="-9" y="0.5" dy="0.32em">50</text></g><g class="tick" transform="translate(0, 400)"><line stroke="#000" x2="-6" y1="0.5" y2="0.5"></line><text fill="#000" x="-9" y="0.5" dy="0.32em">100</text></g><g class="tick" transform="translate(0, 350)"><line stroke="#000" x2="-6" y1="0.5" y2="0.5"></line><text fill="#000" x="-9" y="0.5" dy="0.32em">150</text></g><g class="tick" transform="translate(0, 300)"><line stroke="#000" x2="-6" y1="0.5" y2="0.5"></line><text fill="#000" x="-9" y="0.5" dy="0.32em">200</text></g><g class="tick" transform="translate(0, 250)"><line stroke="#000" x2="-6" y1="0.5" y2="0.5"></line><text fill="#000" x="-9" y="0.5" dy="0.32em">250</text></g><g class="tick" transform="translate(0, 200)"><line stroke="#000" x2="-6" y1="0.5" y2="0.5"></line><text fill="#000" x="-9" y="0.5" dy="0.32em">300</text></g><g class="tick" transform="translate(0, 150)"><line stroke="#000" x2="-6" y1="0.5" y2="0.5"></line><text fill="#000" x="-9" y="0.5" dy="0.32em">350</text></g><g class="tick" transform="translate(0, 100)"><line stroke="#000" x2="-6" y1="0.5" y2="0.5"></line><text fill="#000" x="-9" y="0.5" dy="0.32em">400</text></g><g class="tick" transform="translate(0, 50)"><line stroke="#000" x2="-6" y1="0.5" y2="0.5"></line><text fill="#000" x="-9" y="0.5" dy="0.32em">450</text></g><g class="tick" transform="translate(0, 0)"><line stroke="#000" x2="-6" y1="0.5" y2="0.5"></line><text fill="#000" x="-9" y="0.5" dy="0.32em">500</text></g></g></g><clipPath id="clip"><rect width="960" height="500"></rect></clipPath><g class="hexagon" clip-path="url(#clip)"><path d="M0,-4 L3.4641016151377544,-2.0000000000000004 3.464101615137755,1.9999999999999991 4.898587196589413e-16,4 -3.464101615137754,2.0000000000000018 -3.464101615137756,-1.9999999999999973 Z" transform="translate(121.2435565298214,200)" fill="#4682b4" stroke="#ffffff" stroke-width="0.5"></path><path d="M0,-2.82842712474619 L2.449489742783178,-1.4142135623730951 2.449489742783178,1.4142135623730943 3.4638242249419727e-16,2.82842712474619 -2.4494897427831774,1.4142135623730963 -2.449489742783179,-1.4142135623730931 Z" transform="translate(121.2435565298214,260)" fill="#4682b4" stroke="#ffffff" stroke-width="0.5"></path><path d="M0,-2.82842712474619 L2.449489742783178,-1.4142135623730951 2.449489742783178,1.4142135623730943 3.4638242249419727e-16,2.82842712474619 -2.4494897427831774,1.4142135623730963 -2.449489742783179,-1.4142135623730931 Z" transform="translate(138.56406460551017,170)" fill="#4682b4" stroke="#ffffff" stroke-width="0.5"></path><path d="M0,-2.82842712474619 L2.449489742783178,-1.4142135623730951 2.449489742783178,1.4142135623730943 3.4638242249419727e-16,2.82842712474619 -2.4494897427831774,1.4142135623730963 -2.449489742783179,-1.4142135623730931 Z" transform="translate(138.56406460551017,230)" fill="#4682b4" stroke="#ffffff" stroke-width="0.5"></path><path d="M0,-2.82842712474619 L2.449489742783178,-1.4142135623730951 2.449489742783178,1.4142135623730943 3.4638242249419727e-16,2.82842712474619 -2.4494897427831774,1.4142135623730963 -2.449489742783179,-1.4142135623730931 Z" transform="translate(190.52558883257646,20)" fill="#4682b4" stroke="#ffffff" stroke-width="0.5"></path><path d="M0,-2.82842712474619 L2.449489742783178,-1.4142135623730951 2.449489742783178,1.4142135623730943 3.4638242249419727e-16,2.82842712474619 -2.4494897427831774,1.4142135623730963 -2.449489742783179,-1.4142135623730931 Z" transform="translate(173.2050807568877,110)" fill="#4682b4" stroke="#ffffff" stroke-width="0.5"></path><path d="M0,-4 L3.4641016151377544,-2.0000000000000004 3.464101615137755,1.9999999999999991 4.898587196589413e-16,4 -3.464101615137754,2.0000000000000018 -3.464101615137756,-1.9999999999999973 Z" transform="translate(190.52558883257646,140)" fill="#4682b4" stroke="#ffffff" stroke-width="0.5"></path><path d="M0,-5.65685424949238 L4.898979485566356,-2.8284271247461903 4.898979485566356,2.8284271247461885 6.927648449883945e-16,5.65685424949238 -4.898979485566355,2.8284271247461925 -4.898979485566358,-2.8284271247461863 Z" transform="translate(173.2050807568877,170)" fill="#4682b4" stroke="#ffffff" stroke-width="0.5"></path><path d="M0,-4.898979485566356 L4.242640687119285,-2.4494897427831783 4.242640687119285,2.449489742783177 5.999519546087385e-16,4.898979485566356 -4.242640687119284,2.44948974278318 -4.2426406871192865,-2.4494897427831748 Z" transform="translate(190.52558883257646,200)" fill="#4682b4" stroke="#ffffff" stroke-width="0.5"></path><path d="M0,-4 L3.4641016151377544,-2.0000000000000004 3.464101615137755,1.9999999999999991 4.898587196589413e-16,4 -3.464101615137754,2.0000000000000018 -3.464101615137756,-1.9999999999999973 Z" transform="translate(173.2050807568877,230)" fill="#4682b4" stroke="#ffffff" stroke-width="0.5"></path><path d="M0,-4 L3.4641016151377544,-2.0000000000000004 3.464101615137755,1.9999999999999991 4.898587196589413e-16,4 -3.464101615137754,2.0000000000000018 -3.464101615137756,-1.9999999999999973 Z" transform="translate(190.52558883257646,260)" fill="#4682b4" stroke="#ffffff" stroke-width="0.5"></path><path d="M0,-2.82842712474619 L2.449489742783178,-1.4142135623730951 2.449489742783178,1.4142135623730943 3.4638242249419727e-16,2.82842712474619 -2.4494897427831774,1.4142135623730963 -2.449489742783179,-1.4142135623730931 Z" transform="translate(190.52558883257646,320)" fill="#4682b4" stroke="#ffffff" stroke-width="0.5"></path><path d="M0,-4 L3.4641016151377544,-2.0000000000000004 3.464101615137755,1.9999999999999991 4.898587196589413e-16,4 -3.464101615137754,2.0000000000000018 -3.464101615137756,-1.9999999999999973 Z" transform="translate(225.16660498395402,20)" fill="#4682b4" stroke="#ffffff" stroke-width="0.5"></path><path d="M0,-4 L3.4641016151377544,-2.0000000000000004 3.464101615137755,1.9999999999999991 4.898587196589413e-16,4 -3.464101615137754,2.0000000000000018 -3.464101615137756,-1.9999999999999973 Z" transform="translate(207.84609690826525,50)" fill="#4682b4" stroke="#ffffff" stroke-width="0.5"></path><path d="M0,-7.4833147735478835 L6.48074069840786,-3.7416573867739427 6.480740698407861,3.74165738677394 9.164417484437516e-16,7.4833147735478835 -6.4807406984078595,3.741657386773945 -6.480740698407864,-3.741657386773937 Z" transform="translate(225.16660498395402,80)" fill="#4682b4" stroke="#ffffff" stroke-width="0.5"></path><path d="M0,-6.928203230275508 L5.999999999999998,-3.464101615137755 5.999999999999999,3.4641016151377526 8.484601909799253e-16,6.928203230275508 -5.999999999999997,3.464101615137757 -6.000000000000002,-3.4641016151377495 Z" transform="translate(225.16660498395402,140)" fill="#4682b4" stroke="#ffffff" stroke-width="0.5"></path><path d="M0,-4.898979485566356 L4.242640687119285,-2.4494897427831783 4.242640687119285,2.449489742783177 5.999519546087385e-16,4.898979485566356 -4.242640687119284,2.44948974278318 -4.2426406871192865,-2.4494897427831748 Z" transform="translate(207.84609690826525,170)" fill="#4682b4" stroke="#ffffff" stroke-width="0.5"></path><path d="M0,-8.94427190999916 L7.745966692414834,-4.4721359549995805 7.745966692414835,4.472135954999578 1.0953573965284054e-15,8.94427190999916 -7.745966692414832,4.472135954999583 -7.745966692414838,-4.472135954999573 Z" transform="translate(225.16660498395402,200)" fill="#4682b4" stroke="#ffffff" stroke-width="0.5"></path><path d="M0,-4 L3.4641016151377544,-2.0000000000000004 3.464101615137755,1.9999999999999991 4.898587196589413e-16,4 -3.464101615137754,2.0000000000000018 -3.464101615137756,-1.9999999999999973 Z" transform="translate(207.84609690826525,230)" fill="#4682b4" stroke="#ffffff" stroke-width="0.5"></path><path d="M0,-6.324555320336759 L5.477225575051661,-3.1622776601683804 5.477225575051662,3.162277660168378 7.745346429080775e-16,6.324555320336759 -5.47722557505166,3.162277660168382 -5.477225575051664,-3.1622776601683755 Z" transform="translate(225.16660498395402,260)" fill="#4682b4" stroke="#ffffff" stroke-width="0.5"></path><path d="M0,-2.82842712474619 L2.449489742783178,-1.4142135623730951 2.449489742783178,1.4142135623730943 3.4638242249419727e-16,2.82842712474619 -2.4494897427831774,1.4142135623730963 -2.449489742783179,-1.4142135623730931 Z" transform="translate(207.84609690826525,290)" fill="#4682b4" stroke="#ffffff" stroke-width="0.5"></path><path d="M0,-2.82842712474619 L2.449489742783178,-1.4142135623730951 2.449489742783178,1.4142135623730943 3.4638242249419727e-16,2.82842712474619 -2.4494897427831774,1.4142135623730963 -2.449489742783179,-1.4142135623730931 Z" transform="translate(259.8076211353316,20)" fill="#4682b4" stroke="#ffffff" stroke-width="0.5"></path><path d="M0,-4 L3.4641016151377544,-2.0000000000000004 3.464101615137755,1.9999999999999991 4.898587196589413e-16,4 -3.464101615137754,2.0000000000000018 -3.464101615137756,-1.9999999999999973 Z" transform="translate(259.8076211353316,80)" fill="#4682b4" stroke="#ffffff" stroke-width="0.5"></path><path d="M0,-7.4833147735478835 L6.48074069840786,-3.7416573867739427 6.480740698407861,3.74165738677394 9.164417484437516e-16,7.4833147735478835 -6.4807406984078595,3.741657386773945 -6.480740698407864,-3.741657386773937 Z" transform="translate(242.4871130596428,110)" fill="#4682b4" stroke="#ffffff" stroke-width="0.5"></path><path d="M0,-9.797958971132712 L8.48528137423857,-4.898979485566357 8.48528137423857,4.898979485566354 1.199903909217477e-15,9.797958971132712 -8.485281374238568,4.89897948556636 -8.485281374238573,-4.8989794855663495 Z" transform="translate(259.8076211353316,140)" fill="#4682b4" stroke="#ffffff" stroke-width="0.5"></path><path d="M0,-8.48528137423857 L7.348469228349534,-4.242640687119286 7.3484692283495345,4.242640687119283 1.0391472674825918e-15,8.48528137423857 -7.348469228349532,4.242640687119288 -7.348469228349537,-4.242640687119279 Z" transform="translate(242.4871130596428,170)" fill="#4682b4" stroke="#ffffff" stroke-width="0.5"></path><path d="M0,-9.380831519646858 L8.124038404635959,-4.69041575982343 8.124038404635959,4.690415759823427 1.1488205293876125e-15,9.380831519646858 -8.124038404635957,4.690415759823433 -8.124038404635963,-4.690415759823423 Z" transform="translate(259.8076211353316,200)" fill="#4682b4" stroke="#ffffff" stroke-width="0.5"></path><path d="M0,-6.928203230275508 L5.999999999999998,-3.464101615137755 5.999999999999999,3.4641016151377526 8.484601909799253e-16,6.928203230275508 -5.999999999999997,3.464101615137757 -6.000000000000002,-3.4641016151377495 Z" transform="translate(242.4871130596428,230)" fill="#4682b4" stroke="#ffffff" stroke-width="0.5"></path><path d="M0,-7.4833147735478835 L6.48074069840786,-3.7416573867739427 6.480740698407861,3.74165738677394 9.164417484437516e-16,7.4833147735478835 -6.4807406984078595,3.741657386773945 -6.480740698407864,-3.741657386773937 Z" transform="translate(259.8076211353316,260)" fill="#4682b4" stroke="#ffffff" stroke-width="0.5"></path><path d="M0,-5.65685424949238 L4.898979485566356,-2.8284271247461903 4.898979485566356,2.8284271247461885 6.927648449883945e-16,5.65685424949238 -4.898979485566355,2.8284271247461925 -4.898979485566358,-2.8284271247461863 Z" transform="translate(259.8076211353316,320)" fill="#4682b4" stroke="#ffffff" stroke-width="0.5"></path><path d="M0,-2.82842712474619 L2.449489742783178,-1.4142135623730951 2.449489742783178,1.4142135623730943 3.4638242249419727e-16,2.82842712474619 -2.4494897427831774,1.4142135623730963 -2.449489742783179,-1.4142135623730931 Z" transform="translate(242.4871130596428,350)" fill="#4682b4" stroke="#ffffff" stroke-width="0.5"></path><path d="M0,-2.82842712474619 L2.449489742783178,-1.4142135623730951 2.449489742783178,1.4142135623730943 3.4638242249419727e-16,2.82842712474619 -2.4494897427831774,1.4142135623730963 -2.449489742783179,-1.4142135623730931 Z" transform="translate(259.8076211353316,380)" fill="#4682b4" stroke="#ffffff" stroke-width="0.5"></path><path d="M0,-7.4833147735478835 L6.48074069840786,-3.7416573867739427 6.480740698407861,3.74165738677394 9.164417484437516e-16,7.4833147735478835 -6.4807406984078595,3.741657386773945 -6.480740698407864,-3.741657386773937 Z" transform="translate(294.44863728670913,20)" fill="#4682b4" stroke="#ffffff" stroke-width="0.5"></path><path d="M0,-4.898979485566356 L4.242640687119285,-2.4494897427831783 4.242640687119285,2.449489742783177 5.999519546087385e-16,4.898979485566356 -4.242640687119284,2.44948974278318 -4.2426406871192865,-2.4494897427831748 Z" transform="translate(277.12812921102034,50)" fill="#4682b4" stroke="#ffffff" stroke-width="0.5"></path><path d="M0,-10.583005244258361 L9.165151389911678,-5.291502622129181 9.16515138991168,5.291502622129178 1.2960443497740656e-15,10.583005244258361 -9.165151389911678,5.291502622129185 -9.165151389911683,-5.291502622129173 Z" transform="translate(294.44863728670913,80)" fill="#4682b4" stroke="#ffffff" stroke-width="0.5"></path><path d="M0,-7.4833147735478835 L6.48074069840786,-3.7416573867739427 6.480740698407861,3.74165738677394 9.164417484437516e-16,7.4833147735478835 -6.4807406984078595,3.741657386773945 -6.480740698407864,-3.741657386773937 Z" transform="translate(277.12812921102034,110)" fill="#4682b4" stroke="#ffffff" stroke-width="0.5"></path><path d="M0,-13.856406460551016 L11.999999999999996,-6.92820323027551 11.999999999999998,6.928203230275505 1.6969203819598507e-15,13.856406460551016 -11.999999999999995,6.928203230275514 -12.000000000000004,-6.928203230275499 Z" transform="translate(294.44863728670913,140)" fill="#4682b4" stroke="#ffffff" stroke-width="0.5"></path><path d="M0,-9.380831519646858 L8.124038404635959,-4.69041575982343 8.124038404635959,4.690415759823427 1.1488205293876125e-15,9.380831519646858 -8.124038404635957,4.690415759823433 -8.124038404635963,-4.690415759823423 Z" transform="translate(277.12812921102034,170)" fill="#4682b4" stroke="#ffffff" stroke-width="0.5"></path><path d="M0,-14.696938456699069 L12.727922061357855,-7.348469228349536 12.727922061357857,7.348469228349531 1.7998558638262156e-15,14.696938456699069 -12.727922061357853,7.348469228349541 -12.727922061357862,-7.348469228349525 Z" transform="translate(294.44863728670913,200)" fill="#4682b4" stroke="#ffffff" stroke-width="0.5"></path><path d="M0,-11.31370849898476 L9.797958971132712,-5.656854249492381 9.797958971132712,5.656854249492377 1.385529689976789e-15,11.31370849898476 -9.79795897113271,5.656854249492385 -9.797958971132717,-5.656854249492373 Z" transform="translate(277.12812921102034,230)" fill="#4682b4" stroke="#ffffff" stroke-width="0.5"></path><path d="M0,-10.198039027185569 L8.831760866327846,-5.099019513592785 8.831760866327848,5.099019513592782 1.2488995852222595e-15,10.198039027185569 -8.831760866327844,5.099019513592789 -8.83176086632785,-5.099019513592777 Z" transform="translate(294.44863728670913,260)" fill="#4682b4" stroke="#ffffff" stroke-width="0.5"></path><path d="M0,-7.4833147735478835 L6.48074069840786,-3.7416573867739427 6.480740698407861,3.74165738677394 9.164417484437516e-16,7.4833147735478835 -6.4807406984078595,3.741657386773945 -6.480740698407864,-3.741657386773937 Z" transform="translate(277.12812921102034,290)" fill="#4682b4" stroke="#ffffff" stroke-width="0.5"></path><path d="M0,-4.898979485566356 L4.242640687119285,-2.4494897427831783 4.242640687119285,2.449489742783177 5.999519546087385e-16,4.898979485566356 -4.242640687119284,2.44948974278318 -4.2426406871192865,-2.4494897427831748 Z" transform="translate(294.44863728670913,320)" fill="#4682b4" stroke="#ffffff" stroke-width="0.5"></path><path d="M0,-4 L3.4641016151377544,-2.0000000000000004 3.464101615137755,1.9999999999999991 4.898587196589413e-16,4 -3.464101615137754,2.0000000000000018 -3.464101615137756,-1.9999999999999973 Z" transform="translate(294.44863728670913,380)" fill="#4682b4" stroke="#ffffff" stroke-width="0.5"></path><path d="M0,-2.82842712474619 L2.449489742783178,-1.4142135623730951 2.449489742783178,1.4142135623730943 3.4638242249419727e-16,2.82842712474619 -2.4494897427831774,1.4142135623730963 -2.449489742783179,-1.4142135623730931 Z" transform="translate(277.12812921102034,410)" fill="#4682b4" stroke="#ffffff" stroke-width="0.5"></path><path d="M0,-5.65685424949238 L4.898979485566356,-2.8284271247461903 4.898979485566356,2.8284271247461885 6.927648449883945e-16,5.65685424949238 -4.898979485566355,2.8284271247461925 -4.898979485566358,-2.8284271247461863 Z" transform="translate(329.08965343808666,20)" fill="#4682b4" stroke="#ffffff" stroke-width="0.5"></path><path d="M0,-4.898979485566356 L4.242640687119285,-2.4494897427831783 4.242640687119285,2.449489742783177 5.999519546087385e-16,4.898979485566356 -4.242640687119284,2.44948974278318 -4.2426406871192865,-2.4494897427831748 Z" transform="translate(311.76914536239786,50)" fill="#4682b4" stroke="#ffffff" stroke-width="0.5"></path><path d="M0,-11.31370849898476 L9.797958971132712,-5.656854249492381 9.797958971132712,5.656854249492377 1.385529689976789e-15,11.31370849898476 -9.79795897113271,5.656854249492385 -9.797958971132717,-5.656854249492373 Z" transform="translate(329.08965343808666,80)" fill="#4682b4" stroke="#ffffff" stroke-width="0.5"></path><path d="M0,-10.583005244258361 L9.165151389911678,-5.291502622129181 9.16515138991168,5.291502622129178 1.2960443497740656e-15,10.583005244258361 -9.165151389911678,5.291502622129185 -9.165151389911683,-5.291502622129173 Z" transform="translate(311.76914536239786,110)" fill="#4682b4" stroke="#ffffff" stroke-width="0.5"></path><path d="M0,-18.761663039293715 L16.248076809271918,-9.38083151964686 16.248076809271918,9.380831519646854 2.297641058775225e-15,18.761663039293715 -16.248076809271915,9.380831519646867 -16.248076809271925,-9.380831519646845 Z" transform="translate(329.08965343808666,140)" fill="#4682b4" stroke="#ffffff" stroke-width="0.5"></path><path d="M0,-11.31370849898476 L9.797958971132712,-5.656854249492381 9.797958971132712,5.656854249492377 1.385529689976789e-15,11.31370849898476 -9.79795897113271,5.656854249492385 -9.797958971132717,-5.656854249492373 Z" transform="translate(311.76914536239786,170)" fill="#4682b4" stroke="#ffffff" stroke-width="0.5"></path><path d="M0,-18.973665961010276 L16.431676725154983,-9.48683298050514 16.431676725154986,9.486832980505135 2.3236039287242323e-15,18.973665961010276 -16.43167672515498,9.486832980505147 -16.43167672515499,-9.486832980505126 Z" transform="translate(329.08965343808666,200)" fill="#4682b4" stroke="#ffffff" stroke-width="0.5"></path><path d="M0,-14.696938456699069 L12.727922061357855,-7.348469228349536 12.727922061357857,7.348469228349531 1.7998558638262156e-15,14.696938456699069 -12.727922061357853,7.348469228349541 -12.727922061357862,-7.348469228349525 Z" transform="translate(311.76914536239786,230)" fill="#4682b4" stroke="#ffffff" stroke-width="0.5"></path><path d="M0,-12 L10.392304845413264,-6.000000000000002 10.392304845413264,5.999999999999997 1.4695761589768238e-15,12 -10.392304845413262,6.000000000000005 -10.392304845413268,-5.999999999999992 Z" transform="translate(329.08965343808666,260)" fill="#4682b4" stroke="#ffffff" stroke-width="0.5"></path><path d="M0,-9.380831519646858 L8.124038404635959,-4.69041575982343 8.124038404635959,4.690415759823427 1.1488205293876125e-15,9.380831519646858 -8.124038404635957,4.690415759823433 -8.124038404635963,-4.690415759823423 Z" transform="translate(311.76914536239786,290)" fill="#4682b4" stroke="#ffffff" stroke-width="0.5"></path><path d="M0,-5.65685424949238 L4.898979485566356,-2.8284271247461903 4.898979485566356,2.8284271247461885 6.927648449883945e-16,5.65685424949238 -4.898979485566355,2.8284271247461925 -4.898979485566358,-2.8284271247461863 Z" transform="translate(329.08965343808666,320)" fill="#4682b4" stroke="#ffffff" stroke-width="0.5"></path><path d="M0,-4.898979485566356 L4.242640687119285,-2.4494897427831783 4.242640687119285,2.449489742783177 5.999519546087385e-16,4.898979485566356 -4.242640687119284,2.44948974278318 -4.2426406871192865,-2.4494897427831748 Z" transform="translate(311.76914536239786,350)" fill="#4682b4" stroke="#ffffff" stroke-width="0.5"></path><path d="M0,-6.324555320336759 L5.477225575051661,-3.1622776601683804 5.477225575051662,3.162277660168378 7.745346429080775e-16,6.324555320336759 -5.47722557505166,3.162277660168382 -5.477225575051664,-3.1622776601683755 Z" transform="translate(363.7306695894642,20)" fill="#4682b4" stroke="#ffffff" stroke-width="0.5"></path><path d="M0,-8.48528137423857 L7.348469228349534,-4.242640687119286 7.3484692283495345,4.242640687119283 1.0391472674825918e-15,8.48528137423857 -7.348469228349532,4.242640687119288 -7.348469228349537,-4.242640687119279 Z" transform="translate(346.4101615137754,50)" fill="#4682b4" stroke="#ffffff" stroke-width="0.5"></path><path d="M0,-14.14213562373095 L12.247448713915889,-7.071067811865476 12.24744871391589,7.071067811865471 1.7319121124709865e-15,14.14213562373095 -12.247448713915887,7.071067811865481 -12.247448713915896,-7.071067811865465 Z" transform="translate(363.7306695894642,80)" fill="#4682b4" stroke="#ffffff" stroke-width="0.5"></path><path d="M0,-12.649110640673518 L10.954451150103322,-6.324555320336761 10.954451150103324,6.324555320336756 1.549069285816155e-15,12.649110640673518 -10.95445115010332,6.324555320336764 -10.954451150103328,-6.324555320336751 Z" transform="translate(346.4101615137754,110)" fill="#4682b4" stroke="#ffffff" stroke-width="0.5"></path><path d="M0,-17.663521732655695 L15.297058540778355,-8.83176086632785 15.297058540778357,8.831760866327844 2.1631575351566507e-15,17.663521732655695 -15.297058540778353,8.831760866327855 -15.297058540778362,-8.831760866327835 Z" transform="translate(363.7306695894642,140)" fill="#4682b4" stroke="#ffffff" stroke-width="0.5"></path><path d="M0,-16.97056274847714 L14.696938456699067,-8.485281374238571 14.696938456699069,8.485281374238566 2.0782945349651837e-15,16.97056274847714 -14.696938456699064,8.485281374238577 -14.696938456699074,-8.485281374238559 Z" transform="translate(346.4101615137754,170)" fill="#4682b4" stroke="#ffffff" stroke-width="0.5"></path><path d="M0,-16.73320053068151 L14.491376746189438,-8.366600265340757 14.49137674618944,8.366600265340752 2.0492260469389904e-15,16.73320053068151 -14.491376746189436,8.366600265340763 -14.491376746189445,-8.366600265340745 Z" transform="translate(363.7306695894642,200)" fill="#4682b4" stroke="#ffffff" stroke-width="0.5"></path><path d="M0,-15.231546211727816 L13.190905958272918,-7.6157731058639095 13.19090595827292,7.615773105863904 1.8653264314257463e-15,15.231546211727816 -13.190905958272916,7.615773105863915 -13.190905958272925,-7.615773105863898 Z" transform="translate(346.4101615137754,230)" fill="#4682b4" stroke="#ffffff" stroke-width="0.5"></path><path d="M0,-16.492422502470642 L14.282856857085699,-8.246211251235323 14.2828568570857,8.246211251235318 2.0197392427836453e-15,16.492422502470642 -14.282856857085697,8.246211251235328 -14.282856857085706,-8.24621125123531 Z" transform="translate(363.7306695894642,260)" fill="#4682b4" stroke="#ffffff" stroke-width="0.5"></path><path d="M0,-9.380831519646858 L8.124038404635959,-4.69041575982343 8.124038404635959,4.690415759823427 1.1488205293876125e-15,9.380831519646858 -8.124038404635957,4.690415759823433 -8.124038404635963,-4.690415759823423 Z" transform="translate(346.4101615137754,290)" fill="#4682b4" stroke="#ffffff" stroke-width="0.5"></path><path d="M0,-8.48528137423857 L7.348469228349534,-4.242640687119286 7.3484692283495345,4.242640687119283 1.0391472674825918e-15,8.48528137423857 -7.348469228349532,4.242640687119288 -7.348469228349537,-4.242640687119279 Z" transform="translate(363.7306695894642,320)" fill="#4682b4" stroke="#ffffff" stroke-width="0.5"></path><path d="M0,-4 L3.4641016151377544,-2.0000000000000004 3.464101615137755,1.9999999999999991 4.898587196589413e-16,4 -3.464101615137754,2.0000000000000018 -3.464101615137756,-1.9999999999999973 Z" transform="translate(346.4101615137754,350)" fill="#4682b4" stroke="#ffffff" stroke-width="0.5"></path><path d="M0,-4 L3.4641016151377544,-2.0000000000000004 3.464101615137755,1.9999999999999991 4.898587196589413e-16,4 -3.464101615137754,2.0000000000000018 -3.464101615137756,-1.9999999999999973 Z" transform="translate(363.7306695894642,380)" fill="#4682b4" stroke="#ffffff" stroke-width="0.5"></path><path d="M0,-5.65685424949238 L4.898979485566356,-2.8284271247461903 4.898979485566356,2.8284271247461885 6.927648449883945e-16,5.65685424949238 -4.898979485566355,2.8284271247461925 -4.898979485566358,-2.8284271247461863 Z" transform="translate(398.37168574084177,20)" fill="#4682b4" stroke="#ffffff" stroke-width="0.5"></path><path d="M0,-9.380831519646858 L8.124038404635959,-4.69041575982343 8.124038404635959,4.690415759823427 1.1488205293876125e-15,9.380831519646858 -8.124038404635957,4.690415759823433 -8.124038404635963,-4.690415759823423 Z" transform="translate(381.051177665153,50)" fill="#4682b4" stroke="#ffffff" stroke-width="0.5"></path><path d="M0,-14.422205101855956 L12.489995996796795,-7.21110255092798 12.489995996796797,7.211102550927975 1.7662107314634524e-15,14.422205101855956 -12.489995996796793,7.2111025509279845 -12.489995996796802,-7.2111025509279685 Z" transform="translate(398.37168574084177,80)" fill="#4682b4" stroke="#ffffff" stroke-width="0.5"></path><path d="M0,-15.491933384829668 L13.416407864998737,-7.745966692414836 13.416407864998739,7.7459666924148305 1.8972146632335675e-15,15.491933384829668 -13.416407864998735,7.745966692414841 -13.416407864998744,-7.745966692414823 Z" transform="translate(381.051177665153,110)" fill="#4682b4" stroke="#ffffff" stroke-width="0.5"></path><path d="M0,-14.966629547095767 L12.96148139681572,-7.483314773547885 12.961481396815723,7.48331477354788 1.8328834968875032e-15,14.966629547095767 -12.961481396815719,7.48331477354789 -12.961481396815728,-7.483314773547874 Z" transform="translate(398.37168574084177,140)" fill="#4682b4" stroke="#ffffff" stroke-width="0.5"></path><path d="M0,-16.73320053068151 L14.491376746189438,-8.366600265340757 14.49137674618944,8.366600265340752 2.0492260469389904e-15,16.73320053068151 -14.491376746189436,8.366600265340763 -14.491376746189445,-8.366600265340745 Z" transform="translate(381.051177665153,170)" fill="#4682b4" stroke="#ffffff" stroke-width="0.5"></path><path d="M0,-20.591260281974 L17.832554500127006,-10.295630140987003 17.83255450012701,10.295630140986995 2.5217020994729486e-15,20.591260281974 -17.832554500127006,10.29563014098701 -17.832554500127017,-10.295630140986987 Z" transform="translate(398.37168574084177,200)" fill="#4682b4" stroke="#ffffff" stroke-width="0.5"></path><path d="M0,-18.11077027627483 L15.684387141358119,-9.055385138137417 15.68438714135812,9.055385138137412 2.2179296848932996e-15,18.11077027627483 -15.684387141358117,9.055385138137424 -15.684387141358128,-9.055385138137403 Z" transform="translate(381.051177665153,230)" fill="#4682b4" stroke="#ffffff" stroke-width="0.5"></path><path d="M0,-16 L13.856406460551018,-8.000000000000002 13.85640646055102,7.9999999999999964 1.959434878635765e-15,16 -13.856406460551016,8.000000000000007 -13.856406460551025,-7.999999999999989 Z" transform="translate(398.37168574084177,260)" fill="#4682b4" stroke="#ffffff" stroke-width="0.5"></path><path d="M0,-13.564659966250534 L11.747340124470728,-6.782329983125269 11.74734012447073,6.782329983125265 1.661191740919096e-15,13.564659966250534 -11.747340124470727,6.7823299831252735 -11.747340124470734,-6.782329983125258 Z" transform="translate(381.051177665153,290)" fill="#4682b4" stroke="#ffffff" stroke-width="0.5"></path><path d="M0,-8 L6.928203230275509,-4.000000000000001 6.92820323027551,3.9999999999999982 9.797174393178826e-16,8 -6.928203230275508,4.0000000000000036 -6.928203230275512,-3.9999999999999947 Z" transform="translate(398.37168574084177,320)" fill="#4682b4" stroke="#ffffff" stroke-width="0.5"></path><path d="M0,-4.898979485566356 L4.242640687119285,-2.4494897427831783 4.242640687119285,2.449489742783177 5.999519546087385e-16,4.898979485566356 -4.242640687119284,2.44948974278318 -4.2426406871192865,-2.4494897427831748 Z" transform="translate(381.051177665153,350)" fill="#4682b4" stroke="#ffffff" stroke-width="0.5"></path><path d="M0,-2.82842712474619 L2.449489742783178,-1.4142135623730951 2.449489742783178,1.4142135623730943 3.4638242249419727e-16,2.82842712474619 -2.4494897427831774,1.4142135623730963 -2.449489742783179,-1.4142135623730931 Z" transform="translate(398.37168574084177,380)" fill="#4682b4" stroke="#ffffff" stroke-width="0.5"></path><path d="M0,-2.82842712474619 L2.449489742783178,-1.4142135623730951 2.449489742783178,1.4142135623730943 3.4638242249419727e-16,2.82842712474619 -2.4494897427831774,1.4142135623730963 -2.449489742783179,-1.4142135623730931 Z" transform="translate(381.051177665153,410)" fill="#4682b4" stroke="#ffffff" stroke-width="0.5"></path><path d="M0,-4.898979485566356 L4.242640687119285,-2.4494897427831783 4.242640687119285,2.449489742783177 5.999519546087385e-16,4.898979485566356 -4.242640687119284,2.44948974278318 -4.2426406871192865,-2.4494897427831748 Z" transform="translate(433.0127018922193,20)" fill="#4682b4" stroke="#ffffff" stroke-width="0.5"></path><path d="M0,-7.4833147735478835 L6.48074069840786,-3.7416573867739427 6.480740698407861,3.74165738677394 9.164417484437516e-16,7.4833147735478835 -6.4807406984078595,3.741657386773945 -6.480740698407864,-3.741657386773937 Z" transform="translate(415.6921938165305,50)" fill="#4682b4" stroke="#ffffff" stroke-width="0.5"></path><path d="M0,-10.198039027185569 L8.831760866327846,-5.099019513592785 8.831760866327848,5.099019513592782 1.2488995852222595e-15,10.198039027185569 -8.831760866327844,5.099019513592789 -8.83176086632785,-5.099019513592777 Z" transform="translate(433.0127018922193,80)" fill="#4682b4" stroke="#ffffff" stroke-width="0.5"></path><path d="M0,-15.491933384829668 L13.416407864998737,-7.745966692414836 13.416407864998739,7.7459666924148305 1.8972146632335675e-15,15.491933384829668 -13.416407864998735,7.745966692414841 -13.416407864998744,-7.745966692414823 Z" transform="translate(415.6921938165305,110)" fill="#4682b4" stroke="#ffffff" stroke-width="0.5"></path><path d="M0,-15.74801574802362 L13.638181696985853,-7.874007874011812 13.638181696985855,7.874007874011807 1.928575707873924e-15,15.74801574802362 -13.638181696985852,7.874007874011817 -13.63818169698586,-7.8740078740118 Z" transform="translate(433.0127018922193,140)" fill="#4682b4" stroke="#ffffff" stroke-width="0.5"></path><path d="M0,-20.199009876724155 L17.4928556845359,-10.09950493836208 17.4928556845359,10.099504938362072 2.473665279147601e-15,20.199009876724155 -17.492855684535897,10.099504938362086 -17.492855684535908,-10.099504938362063 Z" transform="translate(415.6921938165305,170)" fill="#4682b4" stroke="#ffffff" stroke-width="0.5"></path><path d="M0,-19.79898987322333 L17.146428199482244,-9.899494936611667 17.146428199482248,9.899494936611662 2.424676957459381e-15,19.79898987322333 -17.146428199482244,9.899494936611674 -17.146428199482255,-9.899494936611653 Z" transform="translate(433.0127018922193,200)" fill="#4682b4" stroke="#ffffff" stroke-width="0.5"></path><path d="M0,-17.435595774162692 L15.099668870541496,-8.717797887081348 15.0996688705415,8.717797887081343 2.1352446556055457e-15,17.435595774162692 -15.099668870541494,8.717797887081353 -15.099668870541505,-8.717797887081334 Z" transform="translate(415.6921938165305,230)" fill="#4682b4" stroke="#ffffff" stroke-width="0.5"></path><path d="M0,-15.491933384829668 L13.416407864998737,-7.745966692414836 13.416407864998739,7.7459666924148305 1.8972146632335675e-15,15.491933384829668 -13.416407864998735,7.745966692414841 -13.416407864998744,-7.745966692414823 Z" transform="translate(433.0127018922193,260)" fill="#4682b4" stroke="#ffffff" stroke-width="0.5"></path><path d="M0,-14.696938456699069 L12.727922061357855,-7.348469228349536 12.727922061357857,7.348469228349531 1.7998558638262156e-15,14.696938456699069 -12.727922061357853,7.348469228349541 -12.727922061357862,-7.348469228349525 Z" transform="translate(415.6921938165305,290)" fill="#4682b4" stroke="#ffffff" stroke-width="0.5"></path><path d="M0,-10.198039027185569 L8.831760866327846,-5.099019513592785 8.831760866327848,5.099019513592782 1.2488995852222595e-15,10.198039027185569 -8.831760866327844,5.099019513592789 -8.83176086632785,-5.099019513592777 Z" transform="translate(433.0127018922193,320)" fill="#4682b4" stroke="#ffffff" stroke-width="0.5"></path><path d="M0,-8.48528137423857 L7.348469228349534,-4.242640687119286 7.3484692283495345,4.242640687119283 1.0391472674825918e-15,8.48528137423857 -7.348469228349532,4.242640687119288 -7.348469228349537,-4.242640687119279 Z" transform="translate(415.6921938165305,350)" fill="#4682b4" stroke="#ffffff" stroke-width="0.5"></path><path d="M0,-4 L3.4641016151377544,-2.0000000000000004 3.464101615137755,1.9999999999999991 4.898587196589413e-16,4 -3.464101615137754,2.0000000000000018 -3.464101615137756,-1.9999999999999973 Z" transform="translate(415.6921938165305,410)" fill="#4682b4" stroke="#ffffff" stroke-width="0.5"></path><path d="M0,-2.82842712474619 L2.449489742783178,-1.4142135623730951 2.449489742783178,1.4142135623730943 3.4638242249419727e-16,2.82842712474619 -2.4494897427831774,1.4142135623730963 -2.449489742783179,-1.4142135623730931 Z" transform="translate(433.0127018922193,440)" fill="#4682b4" stroke="#ffffff" stroke-width="0.5"></path><path d="M0,-4.898979485566356 L4.242640687119285,-2.4494897427831783 4.242640687119285,2.449489742783177 5.999519546087385e-16,4.898979485566356 -4.242640687119284,2.44948974278318 -4.2426406871192865,-2.4494897427831748 Z" transform="translate(467.6537180435968,20)" fill="#4682b4" stroke="#ffffff" stroke-width="0.5"></path><path d="M0,-8 L6.928203230275509,-4.000000000000001 6.92820323027551,3.9999999999999982 9.797174393178826e-16,8 -6.928203230275508,4.0000000000000036 -6.928203230275512,-3.9999999999999947 Z" transform="translate(450.33320996790803,50)" fill="#4682b4" stroke="#ffffff" stroke-width="0.5"></path><path d="M0,-12.328828005937954 L10.677078252031311,-6.164414002968979 10.677078252031313,6.164414002968974 1.509845975471016e-15,12.328828005937954 -10.67707825203131,6.164414002968982 -10.677078252031317,-6.164414002968969 Z" transform="translate(467.6537180435968,80)" fill="#4682b4" stroke="#ffffff" stroke-width="0.5"></path><path d="M0,-14.14213562373095 L12.247448713915889,-7.071067811865476 12.24744871391589,7.071067811865471 1.7319121124709865e-15,14.14213562373095 -12.247448713915887,7.071067811865481 -12.247448713915896,-7.071067811865465 Z" transform="translate(450.33320996790803,110)" fill="#4682b4" stroke="#ffffff" stroke-width="0.5"></path><path d="M0,-15.491933384829668 L13.416407864998737,-7.745966692414836 13.416407864998739,7.7459666924148305 1.8972146632335675e-15,15.491933384829668 -13.416407864998735,7.745966692414841 -13.416407864998744,-7.745966692414823 Z" transform="translate(467.6537180435968,140)" fill="#4682b4" stroke="#ffffff" stroke-width="0.5"></path><path d="M0,-18.547236990991408 L16.06237840420901,-9.273618495495706 16.062378404209014,9.2736184954957 2.2713814414045013e-15,18.547236990991408 -16.062378404209007,9.273618495495713 -16.062378404209017,-9.273618495495692 Z" transform="translate(450.33320996790803,170)" fill="#4682b4" stroke="#ffffff" stroke-width="0.5"></path><path d="M0,-14.422205101855956 L12.489995996796795,-7.21110255092798 12.489995996796797,7.211102550927975 1.7662107314634524e-15,14.422205101855956 -12.489995996796793,7.2111025509279845 -12.489995996796802,-7.2111025509279685 Z" transform="translate(467.6537180435968,200)" fill="#4682b4" stroke="#ffffff" stroke-width="0.5"></path><path d="M0,-17.204650534085253 L14.89966442575134,-8.602325267042628 14.899664425751341,8.602325267042623 2.1069620207016305e-15,17.204650534085253 -14.899664425751336,8.602325267042634 -14.899664425751347,-8.602325267042616 Z" transform="translate(450.33320996790803,230)" fill="#4682b4" stroke="#ffffff" stroke-width="0.5"></path><path d="M0,-10.198039027185569 L8.831760866327846,-5.099019513592785 8.831760866327848,5.099019513592782 1.2488995852222595e-15,10.198039027185569 -8.831760866327844,5.099019513592789 -8.83176086632785,-5.099019513592777 Z" transform="translate(467.6537180435968,260)" fill="#4682b4" stroke="#ffffff" stroke-width="0.5"></path><path d="M0,-12 L10.392304845413264,-6.000000000000002 10.392304845413264,5.999999999999997 1.4695761589768238e-15,12 -10.392304845413262,6.000000000000005 -10.392304845413268,-5.999999999999992 Z" transform="translate(450.33320996790803,290)" fill="#4682b4" stroke="#ffffff" stroke-width="0.5"></path><path d="M0,-7.4833147735478835 L6.48074069840786,-3.7416573867739427 6.480740698407861,3.74165738677394 9.164417484437516e-16,7.4833147735478835 -6.4807406984078595,3.741657386773945 -6.480740698407864,-3.741657386773937 Z" transform="translate(467.6537180435968,320)" fill="#4682b4" stroke="#ffffff" stroke-width="0.5"></path><path d="M0,-7.4833147735478835 L6.48074069840786,-3.7416573867739427 6.480740698407861,3.74165738677394 9.164417484437516e-16,7.4833147735478835 -6.4807406984078595,3.741657386773945 -6.480740698407864,-3.741657386773937 Z" transform="translate(450.33320996790803,350)" fill="#4682b4" stroke="#ffffff" stroke-width="0.5"></path><path d="M0,-2.82842712474619 L2.449489742783178,-1.4142135623730951 2.449489742783178,1.4142135623730943 3.4638242249419727e-16,2.82842712474619 -2.4494897427831774,1.4142135623730963 -2.449489742783179,-1.4142135623730931 Z" transform="translate(450.33320996790803,410)" fill="#4682b4" stroke="#ffffff" stroke-width="0.5"></path><path d="M0,-2.82842712474619 L2.449489742783178,-1.4142135623730951 2.449489742783178,1.4142135623730943 3.4638242249419727e-16,2.82842712474619 -2.4494897427831774,1.4142135623730963 -2.449489742783179,-1.4142135623730931 Z" transform="translate(502.2947341949744,20)" fill="#4682b4" stroke="#ffffff" stroke-width="0.5"></path><path d="M0,-8.48528137423857 L7.348469228349534,-4.242640687119286 7.3484692283495345,4.242640687119283 1.0391472674825918e-15,8.48528137423857 -7.348469228349532,4.242640687119288 -7.348469228349537,-4.242640687119279 Z" transform="translate(484.9742261192856,50)" fill="#4682b4" stroke="#ffffff" stroke-width="0.5"></path><path d="M0,-7.4833147735478835 L6.48074069840786,-3.7416573867739427 6.480740698407861,3.74165738677394 9.164417484437516e-16,7.4833147735478835 -6.4807406984078595,3.741657386773945 -6.480740698407864,-3.741657386773937 Z" transform="translate(502.2947341949744,80)" fill="#4682b4" stroke="#ffffff" stroke-width="0.5"></path><path d="M0,-13.2664991614216 L11.489125293076057,-6.633249580710801 11.489125293076057,6.633249580710797 1.6246775733926007e-15,13.2664991614216 -11.489125293076055,6.633249580710806 -11.489125293076063,-6.633249580710791 Z" transform="translate(484.9742261192856,110)" fill="#4682b4" stroke="#ffffff" stroke-width="0.5"></path><path d="M0,-11.31370849898476 L9.797958971132712,-5.656854249492381 9.797958971132712,5.656854249492377 1.385529689976789e-15,11.31370849898476 -9.79795897113271,5.656854249492385 -9.797958971132717,-5.656854249492373 Z" transform="translate(502.2947341949744,140)" fill="#4682b4" stroke="#ffffff" stroke-width="0.5"></path><path d="M0,-17.204650534085253 L14.89966442575134,-8.602325267042628 14.899664425751341,8.602325267042623 2.1069620207016305e-15,17.204650534085253 -14.899664425751336,8.602325267042634 -14.899664425751347,-8.602325267042616 Z" transform="translate(484.9742261192856,170)" fill="#4682b4" stroke="#ffffff" stroke-width="0.5"></path><path d="M0,-11.6619037896906 L10.099504938362076,-5.830951894845301 10.099504938362077,5.830951894845297 1.428171314800898e-15,11.6619037896906 -10.099504938362076,5.830951894845305 -10.099504938362081,-5.830951894845292 Z" transform="translate(502.2947341949744,200)" fill="#4682b4" stroke="#ffffff" stroke-width="0.5"></path><path d="M0,-17.663521732655695 L15.297058540778355,-8.83176086632785 15.297058540778357,8.831760866327844 2.1631575351566507e-15,17.663521732655695 -15.297058540778353,8.831760866327855 -15.297058540778362,-8.831760866327835 Z" transform="translate(484.9742261192856,230)" fill="#4682b4" stroke="#ffffff" stroke-width="0.5"></path><path d="M0,-9.797958971132712 L8.48528137423857,-4.898979485566357 8.48528137423857,4.898979485566354 1.199903909217477e-15,9.797958971132712 -8.485281374238568,4.89897948556636 -8.485281374238573,-4.8989794855663495 Z" transform="translate(502.2947341949744,260)" fill="#4682b4" stroke="#ffffff" stroke-width="0.5"></path><path d="M0,-8.48528137423857 L7.348469228349534,-4.242640687119286 7.3484692283495345,4.242640687119283 1.0391472674825918e-15,8.48528137423857 -7.348469228349532,4.242640687119288 -7.348469228349537,-4.242640687119279 Z" transform="translate(484.9742261192856,290)" fill="#4682b4" stroke="#ffffff" stroke-width="0.5"></path><path d="M0,-6.324555320336759 L5.477225575051661,-3.1622776601683804 5.477225575051662,3.162277660168378 7.745346429080775e-16,6.324555320336759 -5.47722557505166,3.162277660168382 -5.477225575051664,-3.1622776601683755 Z" transform="translate(502.2947341949744,320)" fill="#4682b4" stroke="#ffffff" stroke-width="0.5"></path><path d="M0,-5.65685424949238 L4.898979485566356,-2.8284271247461903 4.898979485566356,2.8284271247461885 6.927648449883945e-16,5.65685424949238 -4.898979485566355,2.8284271247461925 -4.898979485566358,-2.8284271247461863 Z" transform="translate(484.9742261192856,350)" fill="#4682b4" stroke="#ffffff" stroke-width="0.5"></path><path d="M0,-2.82842712474619 L2.449489742783178,-1.4142135623730951 2.449489742783178,1.4142135623730943 3.4638242249419727e-16,2.82842712474619 -2.4494897427831774,1.4142135623730963 -2.449489742783179,-1.4142135623730931 Z" transform="translate(502.2947341949744,380)" fill="#4682b4" stroke="#ffffff" stroke-width="0.5"></path><path d="M0,-2.82842712474619 L2.449489742783178,-1.4142135623730951 2.449489742783178,1.4142135623730943 3.4638242249419727e-16,2.82842712474619 -2.4494897427831774,1.4142135623730963 -2.449489742783179,-1.4142135623730931 Z" transform="translate(484.9742261192856,410)" fill="#4682b4" stroke="#ffffff" stroke-width="0.5"></path><path d="M0,-4.898979485566356 L4.242640687119285,-2.4494897427831783 4.242640687119285,2.449489742783177 5.999519546087385e-16,4.898979485566356 -4.242640687119284,2.44948974278318 -4.2426406871192865,-2.4494897427831748 Z" transform="translate(519.6152422706631,50)" fill="#4682b4" stroke="#ffffff" stroke-width="0.5"></path><path d="M0,-5.65685424949238 L4.898979485566356,-2.8284271247461903 4.898979485566356,2.8284271247461885 6.927648449883945e-16,5.65685424949238 -4.898979485566355,2.8284271247461925 -4.898979485566358,-2.8284271247461863 Z" transform="translate(536.9357503463518,80)" fill="#4682b4" stroke="#ffffff" stroke-width="0.5"></path><path d="M0,-12.649110640673518 L10.954451150103322,-6.324555320336761 10.954451150103324,6.324555320336756 1.549069285816155e-15,12.649110640673518 -10.95445115010332,6.324555320336764 -10.954451150103328,-6.324555320336751 Z" transform="translate(519.6152422706631,110)" fill="#4682b4" stroke="#ffffff" stroke-width="0.5"></path><path d="M0,-8.94427190999916 L7.745966692414834,-4.4721359549995805 7.745966692414835,4.472135954999578 1.0953573965284054e-15,8.94427190999916 -7.745966692414832,4.472135954999583 -7.745966692414838,-4.472135954999573 Z" transform="translate(536.9357503463518,140)" fill="#4682b4" stroke="#ffffff" stroke-width="0.5"></path><path d="M0,-12.649110640673518 L10.954451150103322,-6.324555320336761 10.954451150103324,6.324555320336756 1.549069285816155e-15,12.649110640673518 -10.95445115010332,6.324555320336764 -10.954451150103328,-6.324555320336751 Z" transform="translate(519.6152422706631,170)" fill="#4682b4" stroke="#ffffff" stroke-width="0.5"></path><path d="M0,-10.198039027185569 L8.831760866327846,-5.099019513592785 8.831760866327848,5.099019513592782 1.2488995852222595e-15,10.198039027185569 -8.831760866327844,5.099019513592789 -8.83176086632785,-5.099019513592777 Z" transform="translate(536.9357503463518,200)" fill="#4682b4" stroke="#ffffff" stroke-width="0.5"></path><path d="M0,-12.649110640673518 L10.954451150103322,-6.324555320336761 10.954451150103324,6.324555320336756 1.549069285816155e-15,12.649110640673518 -10.95445115010332,6.324555320336764 -10.954451150103328,-6.324555320336751 Z" transform="translate(519.6152422706631,230)" fill="#4682b4" stroke="#ffffff" stroke-width="0.5"></path><path d="M0,-8.48528137423857 L7.348469228349534,-4.242640687119286 7.3484692283495345,4.242640687119283 1.0391472674825918e-15,8.48528137423857 -7.348469228349532,4.242640687119288 -7.348469228349537,-4.242640687119279 Z" transform="translate(536.9357503463518,260)" fill="#4682b4" stroke="#ffffff" stroke-width="0.5"></path><path d="M0,-8.48528137423857 L7.348469228349534,-4.242640687119286 7.3484692283495345,4.242640687119283 1.0391472674825918e-15,8.48528137423857 -7.348469228349532,4.242640687119288 -7.348469228349537,-4.242640687119279 Z" transform="translate(519.6152422706631,290)" fill="#4682b4" stroke="#ffffff" stroke-width="0.5"></path><path d="M0,-8 L6.928203230275509,-4.000000000000001 6.92820323027551,3.9999999999999982 9.797174393178826e-16,8 -6.928203230275508,4.0000000000000036 -6.928203230275512,-3.9999999999999947 Z" transform="translate(536.9357503463518,320)" fill="#4682b4" stroke="#ffffff" stroke-width="0.5"></path><path d="M0,-4 L3.4641016151377544,-2.0000000000000004 3.464101615137755,1.9999999999999991 4.898587196589413e-16,4 -3.464101615137754,2.0000000000000018 -3.464101615137756,-1.9999999999999973 Z" transform="translate(519.6152422706631,350)" fill="#4682b4" stroke="#ffffff" stroke-width="0.5"></path><path d="M0,-4.898979485566356 L4.242640687119285,-2.4494897427831783 4.242640687119285,2.449489742783177 5.999519546087385e-16,4.898979485566356 -4.242640687119284,2.44948974278318 -4.2426406871192865,-2.4494897427831748 Z" transform="translate(554.2562584220407,50)" fill="#4682b4" stroke="#ffffff" stroke-width="0.5"></path><path d="M0,-4 L3.4641016151377544,-2.0000000000000004 3.464101615137755,1.9999999999999991 4.898587196589413e-16,4 -3.464101615137754,2.0000000000000018 -3.464101615137756,-1.9999999999999973 Z" transform="translate(571.5767664977294,80)" fill="#4682b4" stroke="#ffffff" stroke-width="0.5"></path><path d="M0,-8 L6.928203230275509,-4.000000000000001 6.92820323027551,3.9999999999999982 9.797174393178826e-16,8 -6.928203230275508,4.0000000000000036 -6.928203230275512,-3.9999999999999947 Z" transform="translate(554.2562584220407,110)" fill="#4682b4" stroke="#ffffff" stroke-width="0.5"></path><path d="M0,-7.4833147735478835 L6.48074069840786,-3.7416573867739427 6.480740698407861,3.74165738677394 9.164417484437516e-16,7.4833147735478835 -6.4807406984078595,3.741657386773945 -6.480740698407864,-3.741657386773937 Z" transform="translate(571.5767664977294,140)" fill="#4682b4" stroke="#ffffff" stroke-width="0.5"></path><path d="M0,-10.95445115010332 L9.486832980505136,-5.477225575051661 9.486832980505136,5.477225575051658 1.3415333537390073e-15,10.95445115010332 -9.486832980505135,5.477225575051665 -9.486832980505142,-5.477225575051653 Z" transform="translate(554.2562584220407,170)" fill="#4682b4" stroke="#ffffff" stroke-width="0.5"></path><path d="M0,-8.94427190999916 L7.745966692414834,-4.4721359549995805 7.745966692414835,4.472135954999578 1.0953573965284054e-15,8.94427190999916 -7.745966692414832,4.472135954999583 -7.745966692414838,-4.472135954999573 Z" transform="translate(571.5767664977294,200)" fill="#4682b4" stroke="#ffffff" stroke-width="0.5"></path><path d="M0,-11.31370849898476 L9.797958971132712,-5.656854249492381 9.797958971132712,5.656854249492377 1.385529689976789e-15,11.31370849898476 -9.79795897113271,5.656854249492385 -9.797958971132717,-5.656854249492373 Z" transform="translate(554.2562584220407,230)" fill="#4682b4" stroke="#ffffff" stroke-width="0.5"></path><path d="M0,-5.65685424949238 L4.898979485566356,-2.8284271247461903 4.898979485566356,2.8284271247461885 6.927648449883945e-16,5.65685424949238 -4.898979485566355,2.8284271247461925 -4.898979485566358,-2.8284271247461863 Z" transform="translate(571.5767664977294,260)" fill="#4682b4" stroke="#ffffff" stroke-width="0.5"></path><path d="M0,-6.928203230275508 L5.999999999999998,-3.464101615137755 5.999999999999999,3.4641016151377526 8.484601909799253e-16,6.928203230275508 -5.999999999999997,3.464101615137757 -6.000000000000002,-3.4641016151377495 Z" transform="translate(554.2562584220407,290)" fill="#4682b4" stroke="#ffffff" stroke-width="0.5"></path><path d="M0,-5.65685424949238 L4.898979485566356,-2.8284271247461903 4.898979485566356,2.8284271247461885 6.927648449883945e-16,5.65685424949238 -4.898979485566355,2.8284271247461925 -4.898979485566358,-2.8284271247461863 Z" transform="translate(571.5767664977294,320)" fill="#4682b4" stroke="#ffffff" stroke-width="0.5"></path><path d="M0,-4 L3.4641016151377544,-2.0000000000000004 3.464101615137755,1.9999999999999991 4.898587196589413e-16,4 -3.464101615137754,2.0000000000000018 -3.464101615137756,-1.9999999999999973 Z" transform="translate(554.2562584220407,410)" fill="#4682b4" stroke="#ffffff" stroke-width="0.5"></path><path d="M0,-7.4833147735478835 L6.48074069840786,-3.7416573867739427 6.480740698407861,3.74165738677394 9.164417484437516e-16,7.4833147735478835 -6.4807406984078595,3.741657386773945 -6.480740698407864,-3.741657386773937 Z" transform="translate(588.8972745734183,110)" fill="#4682b4" stroke="#ffffff" stroke-width="0.5"></path><path d="M0,-2.82842712474619 L2.449489742783178,-1.4142135623730951 2.449489742783178,1.4142135623730943 3.4638242249419727e-16,2.82842712474619 -2.4494897427831774,1.4142135623730963 -2.449489742783179,-1.4142135623730931 Z" transform="translate(606.217782649107,140)" fill="#4682b4" stroke="#ffffff" stroke-width="0.5"></path><path d="M0,-6.928203230275508 L5.999999999999998,-3.464101615137755 5.999999999999999,3.4641016151377526 8.484601909799253e-16,6.928203230275508 -5.999999999999997,3.464101615137757 -6.000000000000002,-3.4641016151377495 Z" transform="translate(588.8972745734183,170)" fill="#4682b4" stroke="#ffffff" stroke-width="0.5"></path><path d="M0,-5.65685424949238 L4.898979485566356,-2.8284271247461903 4.898979485566356,2.8284271247461885 6.927648449883945e-16,5.65685424949238 -4.898979485566355,2.8284271247461925 -4.898979485566358,-2.8284271247461863 Z" transform="translate(588.8972745734183,230)" fill="#4682b4" stroke="#ffffff" stroke-width="0.5"></path><path d="M0,-4.898979485566356 L4.242640687119285,-2.4494897427831783 4.242640687119285,2.449489742783177 5.999519546087385e-16,4.898979485566356 -4.242640687119284,2.44948974278318 -4.2426406871192865,-2.4494897427831748 Z" transform="translate(606.217782649107,260)" fill="#4682b4" stroke="#ffffff" stroke-width="0.5"></path><path d="M0,-2.82842712474619 L2.449489742783178,-1.4142135623730951 2.449489742783178,1.4142135623730943 3.4638242249419727e-16,2.82842712474619 -2.4494897427831774,1.4142135623730963 -2.449489742783179,-1.4142135623730931 Z" transform="translate(588.8972745734183,290)" fill="#4682b4" stroke="#ffffff" stroke-width="0.5"></path><path d="M0,-4 L3.4641016151377544,-2.0000000000000004 3.464101615137755,1.9999999999999991 4.898587196589413e-16,4 -3.464101615137754,2.0000000000000018 -3.464101615137756,-1.9999999999999973 Z" transform="translate(588.8972745734183,350)" fill="#4682b4" stroke="#ffffff" stroke-width="0.5"></path><path d="M0,-4 L3.4641016151377544,-2.0000000000000004 3.464101615137755,1.9999999999999991 4.898587196589413e-16,4 -3.464101615137754,2.0000000000000018 -3.464101615137756,-1.9999999999999973 Z" transform="translate(640.8587988004845,80)" fill="#4682b4" stroke="#ffffff" stroke-width="0.5"></path><path d="M0,-5.65685424949238 L4.898979485566356,-2.8284271247461903 4.898979485566356,2.8284271247461885 6.927648449883945e-16,5.65685424949238 -4.898979485566355,2.8284271247461925 -4.898979485566358,-2.8284271247461863 Z" transform="translate(623.5382907247957,110)" fill="#4682b4" stroke="#ffffff" stroke-width="0.5"></path><path d="M0,-2.82842712474619 L2.449489742783178,-1.4142135623730951 2.449489742783178,1.4142135623730943 3.4638242249419727e-16,2.82842712474619 -2.4494897427831774,1.4142135623730963 -2.449489742783179,-1.4142135623730931 Z" transform="translate(640.8587988004845,140)" fill="#4682b4" stroke="#ffffff" stroke-width="0.5"></path><path d="M0,-6.324555320336759 L5.477225575051661,-3.1622776601683804 5.477225575051662,3.162277660168378 7.745346429080775e-16,6.324555320336759 -5.47722557505166,3.162277660168382 -5.477225575051664,-3.1622776601683755 Z" transform="translate(623.5382907247957,170)" fill="#4682b4" stroke="#ffffff" stroke-width="0.5"></path><path d="M0,-2.82842712474619 L2.449489742783178,-1.4142135623730951 2.449489742783178,1.4142135623730943 3.4638242249419727e-16,2.82842712474619 -2.4494897427831774,1.4142135623730963 -2.449489742783179,-1.4142135623730931 Z" transform="translate(640.8587988004845,200)" fill="#4682b4" stroke="#ffffff" stroke-width="0.5"></path><path d="M0,-6.928203230275508 L5.999999999999998,-3.464101615137755 5.999999999999999,3.4641016151377526 8.484601909799253e-16,6.928203230275508 -5.999999999999997,3.464101615137757 -6.000000000000002,-3.4641016151377495 Z" transform="translate(623.5382907247957,230)" fill="#4682b4" stroke="#ffffff" stroke-width="0.5"></path><path d="M0,-4 L3.4641016151377544,-2.0000000000000004 3.464101615137755,1.9999999999999991 4.898587196589413e-16,4 -3.464101615137754,2.0000000000000018 -3.464101615137756,-1.9999999999999973 Z" transform="translate(640.8587988004845,260)" fill="#4682b4" stroke="#ffffff" stroke-width="0.5"></path><path d="M0,-2.82842712474619 L2.449489742783178,-1.4142135623730951 2.449489742783178,1.4142135623730943 3.4638242249419727e-16,2.82842712474619 -2.4494897427831774,1.4142135623730963 -2.449489742783179,-1.4142135623730931 Z" transform="translate(623.5382907247957,290)" fill="#4682b4" stroke="#ffffff" stroke-width="0.5"></path><path d="M0,-4 L3.4641016151377544,-2.0000000000000004 3.464101615137755,1.9999999999999991 4.898587196589413e-16,4 -3.464101615137754,2.0000000000000018 -3.464101615137756,-1.9999999999999973 Z" transform="translate(675.499814951862,80)" fill="#4682b4" stroke="#ffffff" stroke-width="0.5"></path><path d="M0,-2.82842712474619 L2.449489742783178,-1.4142135623730951 2.449489742783178,1.4142135623730943 3.4638242249419727e-16,2.82842712474619 -2.4494897427831774,1.4142135623730963 -2.449489742783179,-1.4142135623730931 Z" transform="translate(692.8203230275508,110)" fill="#4682b4" stroke="#ffffff" stroke-width="0.5"></path><path d="M0,-2.82842712474619 L2.449489742783178,-1.4142135623730951 2.449489742783178,1.4142135623730943 3.4638242249419727e-16,2.82842712474619 -2.4494897427831774,1.4142135623730963 -2.449489742783179,-1.4142135623730931 Z" transform="translate(710.1408311032395,200)" fill="#4682b4" stroke="#ffffff" stroke-width="0.5"></path><path d="M0,-2.82842712474619 L2.449489742783178,-1.4142135623730951 2.449489742783178,1.4142135623730943 3.4638242249419727e-16,2.82842712474619 -2.4494897427831774,1.4142135623730963 -2.449489742783179,-1.4142135623730931 Z" transform="translate(727.4613391789284,170)" fill="#4682b4" stroke="#ffffff" stroke-width="0.5"></path></g></g></svg>
