<?xml version='1.0' encoding='ascii'?><svg xmlns="http://www.w3.org/2000/svg" width="1020" height="550"><g transform="translate(40,20)"><g class="axis" transform="translate(0,500)"><g fill="none" font-size="10" font-family="sans-serif" text-anchor="middle"><path class="domain" stroke="#000" d="M0.5,6V0.5H960.5V6"></path><g class="tick" transform="translate(0, 0)"><line stroke="#000" y2="6" x1="0.5" x2="0.5"></line><text fill="#000" y="9" x="0.5" dy="0.71em">0</text></g><g class="tick" transform="translate(100, 0)"><line stroke="#000" y2="6" x1="0.5" x2="0.5"></line><text fill="#000" y="9" x="0.5" dy="0.71em">100</text></g><g class="tick" transform="translate(200, 0)"><line stroke="#000" y2="6" x1="0.5" x2="0.5"></line><text fill="#000" y="9" x="0.5" dy="0.71em">200</text></g><g class="tick" transform="translate(300, 0)"><line stroke="#000" y2="6" x1="0.5" x2="0.5"></line><text fill="#000" y="9" x="0.5" dy="0.71em">300</text></g><g class="tick" transform="translate(400, 0)"><line stroke="#000" y2="6" x1="0.5" x2="0.5"></line><text fill="#000" y="9" x="0.5" dy="0.71em">400</text></g><g class="tick" transform="translate(500.00000000000006, 0)"><line stroke="#000" y2="6" x1="0.5" x2="0.5"></line><text fill="#000" y="9" x="0.5" dy="0.71em">500</text></g><g class="tick" transform="translate(600, 0)"><line stroke="#000" y2="6" x1="0.5" x2="0.5"></line><text fill="#000" y="9" x="0.5" dy="0.71em">600</text></g><g class="tick" transform="translate(700, 0)"><line stroke="#000" y2="6" x1="0.5" x2="0.5"></line><text fill="#000" y="9" x="0.5" dy="0.71em">700</text></g><g class="tick" transform="translate(800, 0)"><line stroke="#000" y2="6" x1="0.5" x2="0.5"></line><text fill="#000" y="9" x="0.5" dy="0.71em">800</text></g><g class="tick" transform="translate(900, 0)"><line stroke="#000" y2="6" x1="0.5" x2="0.5"></line><text fill="#000" y="9" x="0.5" dy="0.71em">900</text></g></g></g><g class="axis" transform="translate(0,0)"><g fill="none" font-size="10" font-family="sans-serif" text-anchor="end"><path class="domain" stroke="#000" d="M-6,500.5H0.5V0.5H-6"></path><g class="tick" transform="translate(0, 500)"><line stroke="#000" x2="-6" y1="0.5" y2="0.5"></line><text fill="#000" x="-9" y="0.5" dy="0.32em">0</text></g><g class="tick" transform="translate(0, 450)"><line stroke="#000" x2="-6" y1="0.5" y2="0.5"></line><text fill="#000" x="-9" y="0.5" dy="0.32em">50</text></g><g class="tick" transform="translate(0, 400)"><line stroke="#000" x2="-6" y1="0.5" y2="0.5"></line><text fill="#000" x="-9" y="0.5" dy="0.32em">100</text></g><g class="tick" transform="translate(0, 350)"><line stroke="#000" x2="-6" y1="0.5" y2="0.5"></line><text fill="#000" x="-9" y="0.5" dy="0.32em">150</text></g><g class="tick" transform="translate(0, 300)"><line stroke="#000" x2="-6" y1="0.5" y2="0.5"></line><text fill="#000" x="-9" y="0.5" dy="0.32em">200</text></g><g class="tick" transform="translate(0, 250)"><line stroke="#000" x2="-6" y1="0.5" y2="0.5"></line><text fill="#000" x="-9" y="0.5" dy="0.32em">250</text></g><g class="tick" transform="translate(0, 200)"><line stroke="#000" x2="-6" y1="0.5" y2="0.5"></line><text fill="#000" x="-9" y="0.5" dy="0.32em">300</text></g><g class="tick" transform="translate(0, 150)"><line stroke="#000" x2="-6" y1="0.5" y2="0.5"></line><text fill="#000" x="-9" y="0.5" dy="0.32em">350</text></g><g class="tick" transform="translate(0, 100)"><line stroke="#000" x2="-6" y1="0.5" y2="0.5"></line><text fill="#000" x="-9" y="0.5" dy="0.32em">400</text></g><g class="tick" transform="translate(0, 50)"><line stroke="#000" x2="-6" y1="0.5" y2="0.5"></line><text fill="#000" x="-9" y="0.5" dy="0.32em">450</text></g><g class="tick" transform="translate(0, 0)"><line stroke="#000" x2="-6" y1="0.5" y2="0.5"></line><text fill="#000" x="-9" y="0.5" dy="0.32em">500</text></g></g></g><clipPath id="clip"><rect width="960" height="500"></rect></clipPath><g class="hexagon" clip-path="url(#clip)"><path d="M0,-20 L17.32050807568877,-10.000000000000002 17.320508075688775,9.999999999999996 2.4492935982947065e-15,20 -17.32050807568877,10.000000000000009 -17.32050807568878,-9.999999999999986 Z" transform="translate(121.2435565298214,200)" fill="#edf2f7" stroke="#000000" stroke-width="0.5"></path><path d="M0,-20 L17.32050807568877,-10.000000000000002 17.320508075688775,9.999999999999996 2.4492935982947065e-15,20 -17.32050807568877,10.000000000000009 -17.32050807568878,-9.999999999999986 Z" transform="translate(121.2435565298214,260)" fill="#f6f8fb" stroke="#000000" stroke-width="0.5"></path><path d="M0,-20 L17.32050807568877,-10.000000000000002 17.320508075688775,9.999999999999996 2.4492935982947065e-15,20 -17.32050807568877,10.000000000000009 -17.32050807568878,-9.999999999999986 Z" transform="translate(138.56406460551017,170)" fill="#f6f8fb" stroke="#000000" stroke-width="0.5"></path><path d="M0,-20 L17.32050807568877,-10.000000000000002 17.320508075688775,9.999999999999996 2.4492935982947065e-15,20 -17.32050807568877,10.000000000000009 -17.32050807568878,-9.999999999999986 Z" transform="translate(138.56406460551017,230)" fill="#f6f8fb" stroke="#000000" stroke-width="0.5"></path><path d="M0,-20 L17.32050807568877,-10.000000000000002 17.320508075688775,9.999999999999996 2.4492935982947065e-15,20 -17.32050807568877,10.000000000000009 -17.32050807568878,-9.999999999999986 Z" transform="translate(190.52558883257646,20)" fill="#f6f8fb" stroke="#000000" stroke-width="0.5"></path><path d="M0,-20 L17.32050807568877,-10.000000000000002 17.320508075688775,9.999999999999996 2.4492935982947065e-15,20 -17.32050807568877,10.000000000000009 -17.32050807568878,-9.999999999999986 Z" transform="translate(173.2050807568877,110)" fill="#f6f8fb" stroke="#000000" stroke-width="0.5"></path><path d="M0,-20 L17.32050807568877,-10.000000000000002 17.320508075688775,9.999999999999996 2.4492935982947065e-15,20 -17.32050807568877,10.000000000000009 -17.32050807568878,-9.999999999999986 Z" transform="translate(190.52558883257646,140)" fill="#edf2f7" stroke="#000000" stroke-width="0.5"></path><path d="M0,-20 L17.32050807568877,-10.000000000000002 17.320508075688775,9.999999999999996 2.4492935982947065e-15,20 -17.32050807568877,10.000000000000009 -17.32050807568878,-9.999999999999986 Z" transform="translate(173.2050807568877,170)" fill="#dce5f0" stroke="#000000" stroke-width="0.5"></path><path d="M0,-20 L17.32050807568877,-10.000000000000002 17.320508075688775,9.999999999999996 2.4492935982947065e-15,20 -17.32050807568877,10.000000000000009 -17.32050807568878,-9.999999999999986 Z" transform="translate(190.52558883257646,200)" fill="#e5ebf4" stroke="#000000" stroke-width="0.5"></path><path d="M0,-20 L17.32050807568877,-10.000000000000002 17.320508075688775,9.999999999999996 2.4492935982947065e-15,20 -17.32050807568877,10.000000000000009 -17.32050807568878,-9.999999999999986 Z" transform="translate(173.2050807568877,230)" fill="#edf2f7" stroke="#000000" stroke-width="0.5"></path><path d="M0,-20 L17.32050807568877,-10.000000000000002 17.320508075688775,9.999999999999996 2.4492935982947065e-15,20 -17.32050807568877,10.000000000000009 -17.32050807568878,-9.999999999999986 Z" transform="translate(190.52558883257646,260)" fill="#edf2f7" stroke="#000000" stroke-width="0.5"></path><path d="M0,-20 L17.32050807568877,-10.000000000000002 17.320508075688775,9.999999999999996 2.4492935982947065e-15,20 -17.32050807568877,10.000000000000009 -17.32050807568878,-9.999999999999986 Z" transform="translate(190.52558883257646,320)" fill="#f6f8fb" stroke="#000000" stroke-width="0.5"></path><path d="M0,-20 L17.32050807568877,-10.000000000000002 17.320508075688775,9.999999999999996 2.4492935982947065e-15,20 -17.32050807568877,10.000000000000009 -17.32050807568878,-9.999999999999986 Z" transform="translate(225.16660498395402,20)" fill="#edf2f7" stroke="#000000" stroke-width="0.5"></path><path d="M0,-20 L17.32050807568877,-10.000000000000002 17.320508075688775,9.999999999999996 2.4492935982947065e-15,20 -17.32050807568877,10.000000000000009 -17.32050807568878,-9.999999999999986 Z" transform="translate(207.84609690826525,50)" fill="#edf2f7" stroke="#000000" stroke-width="0.5"></path><path d="M0,-20 L17.32050807568877,-10.000000000000002 17.320508075688775,9.999999999999996 2.4492935982947065e-15,20 -17.32050807568877,10.000000000000009 -17.32050807568878,-9.999999999999986 Z" transform="translate(225.16660498395402,80)" fill="#c2d1e5" stroke="#000000" stroke-width="0.5"></path><path d="M0,-20 L17.32050807568877,-10.000000000000002 17.320508075688775,9.999999999999996 2.4492935982947065e-15,20 -17.32050807568877,10.000000000000009 -17.32050807568878,-9.999999999999986 Z" transform="translate(225.16660498395402,140)" fill="#cad8e8" stroke="#000000" stroke-width="0.5"></path><path d="M0,-20 L17.32050807568877,-10.000000000000002 17.320508075688775,9.999999999999996 2.4492935982947065e-15,20 -17.32050807568877,10.000000000000009 -17.32050807568878,-9.999999999999986 Z" transform="translate(207.84609690826525,170)" fill="#e5ebf4" stroke="#000000" stroke-width="0.5"></path><path d="M0,-20 L17.32050807568877,-10.000000000000002 17.320508075688775,9.999999999999996 2.4492935982947065e-15,20 -17.32050807568877,10.000000000000009 -17.32050807568878,-9.999999999999986 Z" transform="translate(225.16660498395402,200)" fill="#a7bed9" stroke="#000000" stroke-width="0.5"></path><path d="M0,-20 L17.32050807568877,-10.000000000000002 17.320508075688775,9.999999999999996 2.4492935982947065e-15,20 -17.32050807568877,10.000000000000009 -17.32050807568878,-9.999999999999986 Z" transform="translate(207.84609690826525,230)" fill="#edf2f7" stroke="#000000" stroke-width="0.5"></path><path d="M0,-20 L17.32050807568877,-10.000000000000002 17.320508075688775,9.999999999999996 2.4492935982947065e-15,20 -17.32050807568877,10.000000000000009 -17.32050807568878,-9.999999999999986 Z" transform="translate(225.16660498395402,260)" fill="#d3deec" stroke="#000000" stroke-width="0.5"></path><path d="M0,-20 L17.32050807568877,-10.000000000000002 17.320508075688775,9.999999999999996 2.4492935982947065e-15,20 -17.32050807568877,10.000000000000009 -17.32050807568878,-9.999999999999986 Z" transform="translate(207.84609690826525,290)" fill="#f6f8fb" stroke="#000000" stroke-width="0.5"></path><path d="M0,-20 L17.32050807568877,-10.000000000000002 17.320508075688775,9.999999999999996 2.4492935982947065e-15,20 -17.32050807568877,10.000000000000009 -17.32050807568878,-9.999999999999986 Z" transform="translate(259.8076211353316,20)" fill="#f6f8fb" stroke="#000000" stroke-width="0.5"></path><path d="M0,-20 L17.32050807568877,-10.000000000000002 17.320508075688775,9.999999999999996 2.4492935982947065e-15,20 -17.32050807568877,10.000000000000009 -17.32050807568878,-9.999999999999986 Z" transform="translate(259.8076211353316,80)" fill="#edf2f7" stroke="#000000" stroke-width="0.5"></path><path d="M0,-20 L17.32050807568877,-10.000000000000002 17.320508075688775,9.999999999999996 2.4492935982947065e-15,20 -17.32050807568877,10.000000000000009 -17.32050807568878,-9.999999999999986 Z" transform="translate(242.4871130596428,110)" fill="#c2d1e5" stroke="#000000" stroke-width="0.5"></path><path d="M0,-20 L17.32050807568877,-10.000000000000002 17.320508075688775,9.999999999999996 2.4492935982947065e-15,20 -17.32050807568877,10.000000000000009 -17.32050807568878,-9.999999999999986 Z" transform="translate(259.8076211353316,140)" fill="#95b2d2" stroke="#000000" stroke-width="0.5"></path><path d="M0,-20 L17.32050807568877,-10.000000000000002 17.320508075688775,9.999999999999996 2.4492935982947065e-15,20 -17.32050807568877,10.000000000000009 -17.32050807568878,-9.999999999999986 Z" transform="translate(242.4871130596428,170)" fill="#b0c5dd" stroke="#000000" stroke-width="0.5"></path><path d="M0,-20 L17.32050807568877,-10.000000000000002 17.320508075688775,9.999999999999996 2.4492935982947065e-15,20 -17.32050807568877,10.000000000000009 -17.32050807568878,-9.999999999999986 Z" transform="translate(259.8076211353316,200)" fill="#9eb8d6" stroke="#000000" stroke-width="0.5"></path><path d="M0,-20 L17.32050807568877,-10.000000000000002 17.320508075688775,9.999999999999996 2.4492935982947065e-15,20 -17.32050807568877,10.000000000000009 -17.32050807568878,-9.999999999999986 Z" transform="translate(242.4871130596428,230)" fill="#cad8e8" stroke="#000000" stroke-width="0.5"></path><path d="M0,-20 L17.32050807568877,-10.000000000000002 17.320508075688775,9.999999999999996 2.4492935982947065e-15,20 -17.32050807568877,10.000000000000009 -17.32050807568878,-9.999999999999986 Z" transform="translate(259.8076211353316,260)" fill="#c2d1e5" stroke="#000000" stroke-width="0.5"></path><path d="M0,-20 L17.32050807568877,-10.000000000000002 17.320508075688775,9.999999999999996 2.4492935982947065e-15,20 -17.32050807568877,10.000000000000009 -17.32050807568878,-9.999999999999986 Z" transform="translate(259.8076211353316,320)" fill="#dce5f0" stroke="#000000" stroke-width="0.5"></path><path d="M0,-20 L17.32050807568877,-10.000000000000002 17.320508075688775,9.999999999999996 2.4492935982947065e-15,20 -17.32050807568877,10.000000000000009 -17.32050807568878,-9.999999999999986 Z" transform="translate(242.4871130596428,350)" fill="#f6f8fb" stroke="#000000" stroke-width="0.5"></path><path d="M0,-20 L17.32050807568877,-10.000000000000002 17.320508075688775,9.999999999999996 2.4492935982947065e-15,20 -17.32050807568877,10.000000000000009 -17.32050807568878,-9.999999999999986 Z" transform="translate(259.8076211353316,380)" fill="#f6f8fb" stroke="#000000" stroke-width="0.5"></path><path d="M0,-20 L17.32050807568877,-10.000000000000002 17.320508075688775,9.999999999999996 2.4492935982947065e-15,20 -17.32050807568877,10.000000000000009 -17.32050807568878,-9.999999999999986 Z" transform="translate(294.44863728670913,20)" fill="#c2d1e5" stroke="#000000" stroke-width="0.5"></path><path d="M0,-20 L17.32050807568877,-10.000000000000002 17.320508075688775,9.999999999999996 2.4492935982947065e-15,20 -17.32050807568877,10.000000000000009 -17.32050807568878,-9.999999999999986 Z" transform="translate(277.12812921102034,50)" fill="#e5ebf4" stroke="#000000" stroke-width="0.5"></path><path d="M0,-20 L17.32050807568877,-10.000000000000002 17.320508075688775,9.999999999999996 2.4492935982947065e-15,20 -17.32050807568877,10.000000000000009 -17.32050807568878,-9.999999999999986 Z" transform="translate(294.44863728670913,80)" fill="#83a6ca" stroke="#000000" stroke-width="0.5"></path><path d="M0,-20 L17.32050807568877,-10.000000000000002 17.320508075688775,9.999999999999996 2.4492935982947065e-15,20 -17.32050807568877,10.000000000000009 -17.32050807568878,-9.999999999999986 Z" transform="translate(277.12812921102034,110)" fill="#c2d1e5" stroke="#000000" stroke-width="0.5"></path><path d="M0,-20 L17.32050807568877,-10.000000000000002 17.320508075688775,9.999999999999996 2.4492935982947065e-15,20 -17.32050807568877,10.000000000000009 -17.32050807568878,-9.999999999999986 Z" transform="translate(294.44863728670913,140)" fill="#006ba5" stroke="#000000" stroke-width="0.5"></path><path d="M0,-20 L17.32050807568877,-10.000000000000002 17.320508075688775,9.999999999999996 2.4492935982947065e-15,20 -17.32050807568877,10.000000000000009 -17.32050807568878,-9.999999999999986 Z" transform="translate(277.12812921102034,170)" fill="#9eb8d6" stroke="#000000" stroke-width="0.5"></path><path d="M0,-20 L17.32050807568877,-10.000000000000002 17.320508075688775,9.999999999999996 2.4492935982947065e-15,20 -17.32050807568877,10.000000000000009 -17.32050807568878,-9.999999999999986 Z" transform="translate(294.44863728670913,200)" fill="#005b9a" stroke="#000000" stroke-width="0.5"></path><path d="M0,-20 L17.32050807568877,-10.000000000000002 17.320508075688775,9.999999999999996 2.4492935982947065e-15,20 -17.32050807568877,10.000000000000009 -17.32050807568878,-9.999999999999986 Z" transform="translate(277.12812921102034,230)" fill="#709ac3" stroke="#000000" stroke-width="0.5"></path><path d="M0,-20 L17.32050807568877,-10.000000000000002 17.320508075688775,9.999999999999996 2.4492935982947065e-15,20 -17.32050807568877,10.000000000000009 -17.32050807568878,-9.999999999999986 Z" transform="translate(294.44863728670913,260)" fill="#8cacce" stroke="#000000" stroke-width="0.5"></path><path d="M0,-20 L17.32050807568877,-10.000000000000002 17.320508075688775,9.999999999999996 2.4492935982947065e-15,20 -17.32050807568877,10.000000000000009 -17.32050807568878,-9.999999999999986 Z" transform="translate(277.12812921102034,290)" fill="#c2d1e5" stroke="#000000" stroke-width="0.5"></path><path d="M0,-20 L17.32050807568877,-10.000000000000002 17.320508075688775,9.999999999999996 2.4492935982947065e-15,20 -17.32050807568877,10.000000000000009 -17.32050807568878,-9.999999999999986 Z" transform="translate(294.44863728670913,320)" fill="#e5ebf4" stroke="#000000" stroke-width="0.5"></path><path d="M0,-20 L17.32050807568877,-10.000000000000002 17.320508075688775,9.999999999999996 2.4492935982947065e-15,20 -17.32050807568877,10.000000000000009 -17.32050807568878,-9.999999999999986 Z" transform="translate(294.44863728670913,380)" fill="#edf2f7" stroke="#000000" stroke-width="0.5"></path><path d="M0,-20 L17.32050807568877,-10.000000000000002 17.320508075688775,9.999999999999996 2.4492935982947065e-15,20 -17.32050807568877,10.000000000000009 -17.32050807568878,-9.999999999999986 Z" transform="translate(277.12812921102034,410)" fill="#f6f8fb" stroke="#000000" stroke-width="0.5"></path><path d="M0,-20 L17.32050807568877,-10.000000000000002 17.320508075688775,9.999999999999996 2.4492935982947065e-15,20 -17.32050807568877,10.000000000000009 -17.32050807568878,-9.999999999999986 Z" transform="translate(329.08965343808666,20)" fill="#dce5f0" stroke="#000000" stroke-width="0.5"></path><path d="M0,-20 L17.32050807568877,-10.000000000000002 17.320508075688775,9.999999999999996 2.4492935982947065e-15,20 -17.32050807568877,10.000000000000009 -17.32050807568878,-9.999999999999986 Z" transform="translate(311.76914536239786,50)" fill="#e5ebf4" stroke="#000000" stroke-width="0.5"></path><path d="M0,-20 L17.32050807568877,-10.000000000000002 17.320508075688775,9.999999999999996 2.4492935982947065e-15,20 -17.32050807568877,10.000000000000009 -17.32050807568878,-9.999999999999986 Z" transform="translate(329.08965343808666,80)" fill="#709ac3" stroke="#000000" stroke-width="0.5"></path><path d="M0,-20 L17.32050807568877,-10.000000000000002 17.320508075688775,9.999999999999996 2.4492935982947065e-15,20 -17.32050807568877,10.000000000000009 -17.32050807568878,-9.999999999999986 Z" transform="translate(311.76914536239786,110)" fill="#83a6ca" stroke="#000000" stroke-width="0.5"></path><path d="M0,-20 L17.32050807568877,-10.000000000000002 17.320508075688775,9.999999999999996 2.4492935982947065e-15,20 -17.32050807568877,10.000000000000009 -17.32050807568878,-9.999999999999986 Z" transform="translate(329.08965343808666,140)" fill="#00055c" stroke="#000000" stroke-width="0.5"></path><path d="M0,-20 L17.32050807568877,-10.000000000000002 17.320508075688775,9.999999999999996 2.4492935982947065e-15,20 -17.32050807568877,10.000000000000009 -17.32050807568878,-9.999999999999986 Z" transform="translate(311.76914536239786,170)" fill="#709ac3" stroke="#000000" stroke-width="0.5"></path><path d="M0,-20 L17.32050807568877,-10.000000000000002 17.320508075688775,9.999999999999996 2.4492935982947065e-15,20 -17.32050807568877,10.000000000000009 -17.32050807568878,-9.999999999999986 Z" transform="translate(329.08965343808666,200)" fill="#000059" stroke="#000000" stroke-width="0.5"></path><path d="M0,-20 L17.32050807568877,-10.000000000000002 17.320508075688775,9.999999999999996 2.4492935982947065e-15,20 -17.32050807568877,10.000000000000009 -17.32050807568878,-9.999999999999986 Z" transform="translate(311.76914536239786,230)" fill="#005b9a" stroke="#000000" stroke-width="0.5"></path><path d="M0,-20 L17.32050807568877,-10.000000000000002 17.320508075688775,9.999999999999996 2.4492935982947065e-15,20 -17.32050807568877,10.000000000000009 -17.32050807568878,-9.999999999999986 Z" transform="translate(329.08965343808666,260)" fill="#5c8ebb" stroke="#000000" stroke-width="0.5"></path><path d="M0,-20 L17.32050807568877,-10.000000000000002 17.320508075688775,9.999999999999996 2.4492935982947065e-15,20 -17.32050807568877,10.000000000000009 -17.32050807568878,-9.999999999999986 Z" transform="translate(311.76914536239786,290)" fill="#9eb8d6" stroke="#000000" stroke-width="0.5"></path><path d="M0,-20 L17.32050807568877,-10.000000000000002 17.320508075688775,9.999999999999996 2.4492935982947065e-15,20 -17.32050807568877,10.000000000000009 -17.32050807568878,-9.999999999999986 Z" transform="translate(329.08965343808666,320)" fill="#dce5f0" stroke="#000000" stroke-width="0.5"></path><path d="M0,-20 L17.32050807568877,-10.000000000000002 17.320508075688775,9.999999999999996 2.4492935982947065e-15,20 -17.32050807568877,10.000000000000009 -17.32050807568878,-9.999999999999986 Z" transform="translate(311.76914536239786,350)" fill="#e5ebf4" stroke="#000000" stroke-width="0.5"></path><path d="M0,-20 L17.32050807568877,-10.000000000000002 17.320508075688775,9.999999999999996 2.4492935982947065e-15,20 -17.32050807568877,10.000000000000009 -17.32050807568878,-9.999999999999986 Z" transform="translate(363.7306695894642,20)" fill="#d3deec" stroke="#000000" stroke-width="0.5"></path><path d="M0,-20 L17.32050807568877,-10.000000000000002 17.320508075688775,9.999999999999996 2.4492935982947065e-15,20 -17.32050807568877,10.000000000000009 -17.32050807568878,-9.999999999999986 Z" transform="translate(346.4101615137754,50)" fill="#b0c5dd" stroke="#000000" stroke-width="0.5"></path><path d="M0,-20 L17.32050807568877,-10.000000000000002 17.320508075688775,9.999999999999996 2.4492935982947065e-15,20 -17.32050807568877,10.000000000000009 -17.32050807568878,-9.999999999999986 Z" transform="translate(363.7306695894642,80)" fill="#0066a1" stroke="#000000" stroke-width="0.5"></path><path d="M0,-20 L17.32050807568877,-10.000000000000002 17.320508075688775,9.999999999999996 2.4492935982947065e-15,20 -17.32050807568877,10.000000000000009 -17.32050807568878,-9.999999999999986 Z" transform="translate(346.4101615137754,110)" fill="#4682b4" stroke="#000000" stroke-width="0.5"></path><path d="M0,-20 L17.32050807568877,-10.000000000000002 17.320508075688775,9.999999999999996 2.4492935982947065e-15,20 -17.32050807568877,10.000000000000009 -17.32050807568878,-9.999999999999986 Z" transform="translate(363.7306695894642,140)" fill="#00226e" stroke="#000000" stroke-width="0.5"></path><path d="M0,-20 L17.32050807568877,-10.000000000000002 17.320508075688775,9.999999999999996 2.4492935982947065e-15,20 -17.32050807568877,10.000000000000009 -17.32050807568878,-9.999999999999986 Z" transform="translate(346.4101615137754,170)" fill="#002e79" stroke="#000000" stroke-width="0.5"></path><path d="M0,-20 L17.32050807568877,-10.000000000000002 17.320508075688775,9.999999999999996 2.4492935982947065e-15,20 -17.32050807568877,10.000000000000009 -17.32050807568878,-9.999999999999986 Z" transform="translate(363.7306695894642,200)" fill="#00337d" stroke="#000000" stroke-width="0.5"></path><path d="M0,-20 L17.32050807568877,-10.000000000000002 17.320508075688775,9.999999999999996 2.4492935982947065e-15,20 -17.32050807568877,10.000000000000009 -17.32050807568878,-9.999999999999986 Z" transform="translate(346.4101615137754,230)" fill="#005093" stroke="#000000" stroke-width="0.5"></path><path d="M0,-20 L17.32050807568877,-10.000000000000002 17.320508075688775,9.999999999999996 2.4492935982947065e-15,20 -17.32050807568877,10.000000000000009 -17.32050807568878,-9.999999999999986 Z" transform="translate(363.7306695894642,260)" fill="#003780" stroke="#000000" stroke-width="0.5"></path><path d="M0,-20 L17.32050807568877,-10.000000000000002 17.320508075688775,9.999999999999996 2.4492935982947065e-15,20 -17.32050807568877,10.000000000000009 -17.32050807568878,-9.999999999999986 Z" transform="translate(346.4101615137754,290)" fill="#9eb8d6" stroke="#000000" stroke-width="0.5"></path><path d="M0,-20 L17.32050807568877,-10.000000000000002 17.320508075688775,9.999999999999996 2.4492935982947065e-15,20 -17.32050807568877,10.000000000000009 -17.32050807568878,-9.999999999999986 Z" transform="translate(363.7306695894642,320)" fill="#b0c5dd" stroke="#000000" stroke-width="0.5"></path><path d="M0,-20 L17.32050807568877,-10.000000000000002 17.320508075688775,9.999999999999996 2.4492935982947065e-15,20 -17.32050807568877,10.000000000000009 -17.32050807568878,-9.999999999999986 Z" transform="translate(346.4101615137754,350)" fill="#edf2f7" stroke="#000000" stroke-width="0.5"></path><path d="M0,-20 L17.32050807568877,-10.000000000000002 17.320508075688775,9.999999999999996 2.4492935982947065e-15,20 -17.32050807568877,10.000000000000009 -17.32050807568878,-9.999999999999986 Z" transform="translate(363.7306695894642,380)" fill="#edf2f7" stroke="#000000" stroke-width="0.5"></path><path d="M0,-20 L17.32050807568877,-10.000000000000002 17.320508075688775,9.999999999999996 2.4492935982947065e-15,20 -17.32050807568877,10.000000000000009 -17.32050807568878,-9.999999999999986 Z" transform="translate(398.37168574084177,20)" fill="#dce5f0" stroke="#000000" stroke-width="0.5"></path><path d="M0,-20 L17.32050807568877,-10.000000000000002 17.320508075688775,9.999999999999996 2.4492935982947065e-15,20 -17.32050807568877,10.000000000000009 -17.32050807568878,-9.999999999999986 Z" transform="translate(381.051177665153,50)" fill="#9eb8d6" stroke="#000000" stroke-width="0.5"></path><path d="M0,-20 L17.32050807568877,-10.000000000000002 17.320508075688775,9.999999999999996 2.4492935982947065e-15,20 -17.32050807568877,10.000000000000009 -17.32050807568878,-9.999999999999986 Z" transform="translate(398.37168574084177,80)" fill="#00609e" stroke="#000000" stroke-width="0.5"></path><path d="M0,-20 L17.32050807568877,-10.000000000000002 17.320508075688775,9.999999999999996 2.4492935982947065e-15,20 -17.32050807568877,10.000000000000009 -17.32050807568878,-9.999999999999986 Z" transform="translate(381.051177665153,110)" fill="#004b8f" stroke="#000000" stroke-width="0.5"></path><path d="M0,-20 L17.32050807568877,-10.000000000000002 17.320508075688775,9.999999999999996 2.4492935982947065e-15,20 -17.32050807568877,10.000000000000009 -17.32050807568878,-9.999999999999986 Z" transform="translate(398.37168574084177,140)" fill="#005696" stroke="#000000" stroke-width="0.5"></path><path d="M0,-20 L17.32050807568877,-10.000000000000002 17.320508075688775,9.999999999999996 2.4492935982947065e-15,20 -17.32050807568877,10.000000000000009 -17.32050807568878,-9.999999999999986 Z" transform="translate(381.051177665153,170)" fill="#00337d" stroke="#000000" stroke-width="0.5"></path><path d="M0,-20 L17.32050807568877,-10.000000000000002 17.320508075688775,9.999999999999996 2.4492935982947065e-15,20 -17.32050807568877,10.000000000000009 -17.32050807568878,-9.999999999999986 Z" transform="translate(398.37168574084177,200)" fill="#00003f" stroke="#000000" stroke-width="0.5"></path><path d="M0,-20 L17.32050807568877,-10.000000000000002 17.320508075688775,9.999999999999996 2.4492935982947065e-15,20 -17.32050807568877,10.000000000000009 -17.32050807568878,-9.999999999999986 Z" transform="translate(381.051177665153,230)" fill="#001967" stroke="#000000" stroke-width="0.5"></path><path d="M0,-20 L17.32050807568877,-10.000000000000002 17.320508075688775,9.999999999999996 2.4492935982947065e-15,20 -17.32050807568877,10.000000000000009 -17.32050807568878,-9.999999999999986 Z" transform="translate(398.37168574084177,260)" fill="#004188" stroke="#000000" stroke-width="0.5"></path><path d="M0,-20 L17.32050807568877,-10.000000000000002 17.320508075688775,9.999999999999996 2.4492935982947065e-15,20 -17.32050807568877,10.000000000000009 -17.32050807568878,-9.999999999999986 Z" transform="translate(381.051177665153,290)" fill="#1471a9" stroke="#000000" stroke-width="0.5"></path><path d="M0,-20 L17.32050807568877,-10.000000000000002 17.320508075688775,9.999999999999996 2.4492935982947065e-15,20 -17.32050807568877,10.000000000000009 -17.32050807568878,-9.999999999999986 Z" transform="translate(398.37168574084177,320)" fill="#b9cbe1" stroke="#000000" stroke-width="0.5"></path><path d="M0,-20 L17.32050807568877,-10.000000000000002 17.320508075688775,9.999999999999996 2.4492935982947065e-15,20 -17.32050807568877,10.000000000000009 -17.32050807568878,-9.999999999999986 Z" transform="translate(381.051177665153,350)" fill="#e5ebf4" stroke="#000000" stroke-width="0.5"></path><path d="M0,-20 L17.32050807568877,-10.000000000000002 17.320508075688775,9.999999999999996 2.4492935982947065e-15,20 -17.32050807568877,10.000000000000009 -17.32050807568878,-9.999999999999986 Z" transform="translate(398.37168574084177,380)" fill="#f6f8fb" stroke="#000000" stroke-width="0.5"></path><path d="M0,-20 L17.32050807568877,-10.000000000000002 17.320508075688775,9.999999999999996 2.4492935982947065e-15,20 -17.32050807568877,10.000000000000009 -17.32050807568878,-9.999999999999986 Z" transform="translate(381.051177665153,410)" fill="#f6f8fb" stroke="#000000" stroke-width="0.5"></path><path d="M0,-20 L17.32050807568877,-10.000000000000002 17.320508075688775,9.999999999999996 2.4492935982947065e-15,20 -17.32050807568877,10.000000000000009 -17.32050807568878,-9.999999999999986 Z" transform="translate(433.0127018922193,20)" fill="#e5ebf4" stroke="#000000" stroke-width="0.5"></path><path d="M0,-20 L17.32050807568877,-10.000000000000002 17.320508075688775,9.999999999999996 2.4492935982947065e-15,20 -17.32050807568877,10.000000000000009 -17.32050807568878,-9.999999999999986 Z" transform="translate(415.6921938165305,50)" fill="#c2d1e5" stroke="#000000" stroke-width="0.5"></path><path d="M0,-20 L17.32050807568877,-10.000000000000002 17.320508075688775,9.999999999999996 2.4492935982947065e-15,20 -17.32050807568877,10.000000000000009 -17.32050807568878,-9.999999999999986 Z" transform="translate(433.0127018922193,80)" fill="#8cacce" stroke="#000000" stroke-width="0.5"></path><path d="M0,-20 L17.32050807568877,-10.000000000000002 17.320508075688775,9.999999999999996 2.4492935982947065e-15,20 -17.32050807568877,10.000000000000009 -17.32050807568878,-9.999999999999986 Z" transform="translate(415.6921938165305,110)" fill="#004b8f" stroke="#000000" stroke-width="0.5"></path><path d="M0,-20 L17.32050807568877,-10.000000000000002 17.320508075688775,9.999999999999996 2.4492935982947065e-15,20 -17.32050807568877,10.000000000000009 -17.32050807568878,-9.999999999999986 Z" transform="translate(433.0127018922193,140)" fill="#00468b" stroke="#000000" stroke-width="0.5"></path><path d="M0,-20 L17.32050807568877,-10.000000000000002 17.320508075688775,9.999999999999996 2.4492935982947065e-15,20 -17.32050807568877,10.000000000000009 -17.32050807568878,-9.999999999999986 Z" transform="translate(415.6921938165305,170)" fill="#000045" stroke="#000000" stroke-width="0.5"></path><path d="M0,-20 L17.32050807568877,-10.000000000000002 17.320508075688775,9.999999999999996 2.4492935982947065e-15,20 -17.32050807568877,10.000000000000009 -17.32050807568878,-9.999999999999986 Z" transform="translate(433.0127018922193,200)" fill="#00004b" stroke="#000000" stroke-width="0.5"></path><path d="M0,-20 L17.32050807568877,-10.000000000000002 17.320508075688775,9.999999999999996 2.4492935982947065e-15,20 -17.32050807568877,10.000000000000009 -17.32050807568878,-9.999999999999986 Z" transform="translate(415.6921938165305,230)" fill="#002672" stroke="#000000" stroke-width="0.5"></path><path d="M0,-20 L17.32050807568877,-10.000000000000002 17.320508075688775,9.999999999999996 2.4492935982947065e-15,20 -17.32050807568877,10.000000000000009 -17.32050807568878,-9.999999999999986 Z" transform="translate(433.0127018922193,260)" fill="#004b8f" stroke="#000000" stroke-width="0.5"></path><path d="M0,-20 L17.32050807568877,-10.000000000000002 17.320508075688775,9.999999999999996 2.4492935982947065e-15,20 -17.32050807568877,10.000000000000009 -17.32050807568878,-9.999999999999986 Z" transform="translate(415.6921938165305,290)" fill="#005b9a" stroke="#000000" stroke-width="0.5"></path><path d="M0,-20 L17.32050807568877,-10.000000000000002 17.320508075688775,9.999999999999996 2.4492935982947065e-15,20 -17.32050807568877,10.000000000000009 -17.32050807568878,-9.999999999999986 Z" transform="translate(433.0127018922193,320)" fill="#8cacce" stroke="#000000" stroke-width="0.5"></path><path d="M0,-20 L17.32050807568877,-10.000000000000002 17.320508075688775,9.999999999999996 2.4492935982947065e-15,20 -17.32050807568877,10.000000000000009 -17.32050807568878,-9.999999999999986 Z" transform="translate(415.6921938165305,350)" fill="#b0c5dd" stroke="#000000" stroke-width="0.5"></path><path d="M0,-20 L17.32050807568877,-10.000000000000002 17.320508075688775,9.999999999999996 2.4492935982947065e-15,20 -17.32050807568877,10.000000000000009 -17.32050807568878,-9.999999999999986 Z" transform="translate(415.6921938165305,410)" fill="#edf2f7" stroke="#000000" stroke-width="0.5"></path><path d="M0,-20 L17.32050807568877,-10.000000000000002 17.320508075688775,9.999999999999996 2.4492935982947065e-15,20 -17.32050807568877,10.000000000000009 -17.32050807568878,-9.999999999999986 Z" transform="translate(433.0127018922193,440)" fill="#f6f8fb" stroke="#000000" stroke-width="0.5"></path><path d="M0,-20 L17.32050807568877,-10.000000000000002 17.320508075688775,9.999999999999996 2.4492935982947065e-15,20 -17.32050807568877,10.000000000000009 -17.32050807568878,-9.999999999999986 Z" transform="translate(467.6537180435968,20)" fill="#e5ebf4" stroke="#000000" stroke-width="0.5"></path><path d="M0,-20 L17.32050807568877,-10.000000000000002 17.320508075688775,9.999999999999996 2.4492935982947065e-15,20 -17.32050807568877,10.000000000000009 -17.32050807568878,-9.999999999999986 Z" transform="translate(450.33320996790803,50)" fill="#b9cbe1" stroke="#000000" stroke-width="0.5"></path><path d="M0,-20 L17.32050807568877,-10.000000000000002 17.320508075688775,9.999999999999996 2.4492935982947065e-15,20 -17.32050807568877,10.000000000000009 -17.32050807568878,-9.999999999999986 Z" transform="translate(467.6537180435968,80)" fill="#5288b8" stroke="#000000" stroke-width="0.5"></path><path d="M0,-20 L17.32050807568877,-10.000000000000002 17.320508075688775,9.999999999999996 2.4492935982947065e-15,20 -17.32050807568877,10.000000000000009 -17.32050807568878,-9.999999999999986 Z" transform="translate(450.33320996790803,110)" fill="#0066a1" stroke="#000000" stroke-width="0.5"></path><path d="M0,-20 L17.32050807568877,-10.000000000000002 17.320508075688775,9.999999999999996 2.4492935982947065e-15,20 -17.32050807568877,10.000000000000009 -17.32050807568878,-9.999999999999986 Z" transform="translate(467.6537180435968,140)" fill="#004b8f" stroke="#000000" stroke-width="0.5"></path><path d="M0,-20 L17.32050807568877,-10.000000000000002 17.320508075688775,9.999999999999996 2.4492935982947065e-15,20 -17.32050807568877,10.000000000000009 -17.32050807568878,-9.999999999999986 Z" transform="translate(450.33320996790803,170)" fill="#000e60" stroke="#000000" stroke-width="0.5"></path><path d="M0,-20 L17.32050807568877,-10.000000000000002 17.320508075688775,9.999999999999996 2.4492935982947065e-15,20 -17.32050807568877,10.000000000000009 -17.32050807568878,-9.999999999999986 Z" transform="translate(467.6537180435968,200)" fill="#00609e" stroke="#000000" stroke-width="0.5"></path><path d="M0,-20 L17.32050807568877,-10.000000000000002 17.320508075688775,9.999999999999996 2.4492935982947065e-15,20 -17.32050807568877,10.000000000000009 -17.32050807568878,-9.999999999999986 Z" transform="translate(450.33320996790803,230)" fill="#002a75" stroke="#000000" stroke-width="0.5"></path><path d="M0,-20 L17.32050807568877,-10.000000000000002 17.320508075688775,9.999999999999996 2.4492935982947065e-15,20 -17.32050807568877,10.000000000000009 -17.32050807568878,-9.999999999999986 Z" transform="translate(467.6537180435968,260)" fill="#8cacce" stroke="#000000" stroke-width="0.5"></path><path d="M0,-20 L17.32050807568877,-10.000000000000002 17.320508075688775,9.999999999999996 2.4492935982947065e-15,20 -17.32050807568877,10.000000000000009 -17.32050807568878,-9.999999999999986 Z" transform="translate(450.33320996790803,290)" fill="#5c8ebb" stroke="#000000" stroke-width="0.5"></path><path d="M0,-20 L17.32050807568877,-10.000000000000002 17.320508075688775,9.999999999999996 2.4492935982947065e-15,20 -17.32050807568877,10.000000000000009 -17.32050807568878,-9.999999999999986 Z" transform="translate(467.6537180435968,320)" fill="#c2d1e5" stroke="#000000" stroke-width="0.5"></path><path d="M0,-20 L17.32050807568877,-10.000000000000002 17.320508075688775,9.999999999999996 2.4492935982947065e-15,20 -17.32050807568877,10.000000000000009 -17.32050807568878,-9.999999999999986 Z" transform="translate(450.33320996790803,350)" fill="#c2d1e5" stroke="#000000" stroke-width="0.5"></path><path d="M0,-20 L17.32050807568877,-10.000000000000002 17.320508075688775,9.999999999999996 2.4492935982947065e-15,20 -17.32050807568877,10.000000000000009 -17.32050807568878,-9.999999999999986 Z" transform="translate(450.33320996790803,410)" fill="#f6f8fb" stroke="#000000" stroke-width="0.5"></path><path d="M0,-20 L17.32050807568877,-10.000000000000002 17.320508075688775,9.999999999999996 2.4492935982947065e-15,20 -17.32050807568877,10.000000000000009 -17.32050807568878,-9.999999999999986 Z" transform="translate(502.2947341949744,20)" fill="#f6f8fb" stroke="#000000" stroke-width="0.5"></path><path d="M0,-20 L17.32050807568877,-10.000000000000002 17.320508075688775,9.999999999999996 2.4492935982947065e-15,20 -17.32050807568877,10.000000000000009 -17.32050807568878,-9.999999999999986 Z" transform="translate(484.9742261192856,50)" fill="#b0c5dd" stroke="#000000" stroke-width="0.5"></path><path d="M0,-20 L17.32050807568877,-10.000000000000002 17.320508075688775,9.999999999999996 2.4492935982947065e-15,20 -17.32050807568877,10.000000000000009 -17.32050807568878,-9.999999999999986 Z" transform="translate(502.2947341949744,80)" fill="#c2d1e5" stroke="#000000" stroke-width="0.5"></path><path d="M0,-20 L17.32050807568877,-10.000000000000002 17.320508075688775,9.999999999999996 2.4492935982947065e-15,20 -17.32050807568877,10.000000000000009 -17.32050807568878,-9.999999999999986 Z" transform="translate(484.9742261192856,110)" fill="#2a77ad" stroke="#000000" stroke-width="0.5"></path><path d="M0,-20 L17.32050807568877,-10.000000000000002 17.320508075688775,9.999999999999996 2.4492935982947065e-15,20 -17.32050807568877,10.000000000000009 -17.32050807568878,-9.999999999999986 Z" transform="translate(502.2947341949744,140)" fill="#709ac3" stroke="#000000" stroke-width="0.5"></path><path d="M0,-20 L17.32050807568877,-10.000000000000002 17.320508075688775,9.999999999999996 2.4492935982947065e-15,20 -17.32050807568877,10.000000000000009 -17.32050807568878,-9.999999999999986 Z" transform="translate(484.9742261192856,170)" fill="#002a75" stroke="#000000" stroke-width="0.5"></path><path d="M0,-20 L17.32050807568877,-10.000000000000002 17.320508075688775,9.999999999999996 2.4492935982947065e-15,20 -17.32050807568877,10.000000000000009 -17.32050807568878,-9.999999999999986 Z" transform="translate(502.2947341949744,200)" fill="#6694bf" stroke="#000000" stroke-width="0.5"></path><path d="M0,-20 L17.32050807568877,-10.000000000000002 17.320508075688775,9.999999999999996 2.4492935982947065e-15,20 -17.32050807568877,10.000000000000009 -17.32050807568878,-9.999999999999986 Z" transform="translate(484.9742261192856,230)" fill="#00226e" stroke="#000000" stroke-width="0.5"></path><path d="M0,-20 L17.32050807568877,-10.000000000000002 17.320508075688775,9.999999999999996 2.4492935982947065e-15,20 -17.32050807568877,10.000000000000009 -17.32050807568878,-9.999999999999986 Z" transform="translate(502.2947341949744,260)" fill="#95b2d2" stroke="#000000" stroke-width="0.5"></path><path d="M0,-20 L17.32050807568877,-10.000000000000002 17.320508075688775,9.999999999999996 2.4492935982947065e-15,20 -17.32050807568877,10.000000000000009 -17.32050807568878,-9.999999999999986 Z" transform="translate(484.9742261192856,290)" fill="#b0c5dd" stroke="#000000" stroke-width="0.5"></path><path d="M0,-20 L17.32050807568877,-10.000000000000002 17.320508075688775,9.999999999999996 2.4492935982947065e-15,20 -17.32050807568877,10.000000000000009 -17.32050807568878,-9.999999999999986 Z" transform="translate(502.2947341949744,320)" fill="#d3deec" stroke="#000000" stroke-width="0.5"></path><path d="M0,-20 L17.32050807568877,-10.000000000000002 17.320508075688775,9.999999999999996 2.4492935982947065e-15,20 -17.32050807568877,10.000000000000009 -17.32050807568878,-9.999999999999986 Z" transform="translate(484.9742261192856,350)" fill="#dce5f0" stroke="#000000" stroke-width="0.5"></path><path d="M0,-20 L17.32050807568877,-10.000000000000002 17.320508075688775,9.999999999999996 2.4492935982947065e-15,20 -17.32050807568877,10.000000000000009 -17.32050807568878,-9.999999999999986 Z" transform="translate(502.2947341949744,380)" fill="#f6f8fb" stroke="#000000" stroke-width="0.5"></path><path d="M0,-20 L17.32050807568877,-10.000000000000002 17.320508075688775,9.999999999999996 2.4492935982947065e-15,20 -17.32050807568877,10.000000000000009 -17.32050807568878,-9.999999999999986 Z" transform="translate(484.9742261192856,410)" fill="#f6f8fb" stroke="#000000" stroke-width="0.5"></path><path d="M0,-20 L17.32050807568877,-10.000000000000002 17.320508075688775,9.999999999999996 2.4492935982947065e-15,20 -17.32050807568877,10.000000000000009 -17.32050807568878,-9.999999999999986 Z" transform="translate(519.6152422706631,50)" fill="#e5ebf4" stroke="#000000" stroke-width="0.5"></path><path d="M0,-20 L17.32050807568877,-10.000000000000002 17.320508075688775,9.999999999999996 2.4492935982947065e-15,20 -17.32050807568877,10.000000000000009 -17.32050807568878,-9.999999999999986 Z" transform="translate(536.9357503463518,80)" fill="#dce5f0" stroke="#000000" stroke-width="0.5"></path><path d="M0,-20 L17.32050807568877,-10.000000000000002 17.320508075688775,9.999999999999996 2.4492935982947065e-15,20 -17.32050807568877,10.000000000000009 -17.32050807568878,-9.999999999999986 Z" transform="translate(519.6152422706631,110)" fill="#4682b4" stroke="#000000" stroke-width="0.5"></path><path d="M0,-20 L17.32050807568877,-10.000000000000002 17.320508075688775,9.999999999999996 2.4492935982947065e-15,20 -17.32050807568877,10.000000000000009 -17.32050807568878,-9.999999999999986 Z" transform="translate(536.9357503463518,140)" fill="#a7bed9" stroke="#000000" stroke-width="0.5"></path><path d="M0,-20 L17.32050807568877,-10.000000000000002 17.320508075688775,9.999999999999996 2.4492935982947065e-15,20 -17.32050807568877,10.000000000000009 -17.32050807568878,-9.999999999999986 Z" transform="translate(519.6152422706631,170)" fill="#4682b4" stroke="#000000" stroke-width="0.5"></path><path d="M0,-20 L17.32050807568877,-10.000000000000002 17.320508075688775,9.999999999999996 2.4492935982947065e-15,20 -17.32050807568877,10.000000000000009 -17.32050807568878,-9.999999999999986 Z" transform="translate(536.9357503463518,200)" fill="#8cacce" stroke="#000000" stroke-width="0.5"></path><path d="M0,-20 L17.32050807568877,-10.000000000000002 17.320508075688775,9.999999999999996 2.4492935982947065e-15,20 -17.32050807568877,10.000000000000009 -17.32050807568878,-9.999999999999986 Z" transform="translate(519.6152422706631,230)" fill="#4682b4" stroke="#000000" stroke-width="0.5"></path><path d="M0,-20 L17.32050807568877,-10.000000000000002 17.320508075688775,9.999999999999996 2.4492935982947065e-15,20 -17.32050807568877,10.000000000000009 -17.32050807568878,-9.999999999999986 Z" transform="translate(536.9357503463518,260)" fill="#b0c5dd" stroke="#000000" stroke-width="0.5"></path><path d="M0,-20 L17.32050807568877,-10.000000000000002 17.320508075688775,9.999999999999996 2.4492935982947065e-15,20 -17.32050807568877,10.000000000000009 -17.32050807568878,-9.999999999999986 Z" transform="translate(519.6152422706631,290)" fill="#b0c5dd" stroke="#000000" stroke-width="0.5"></path><path d="M0,-20 L17.32050807568877,-10.000000000000002 17.320508075688775,9.999999999999996 2.4492935982947065e-15,20 -17.32050807568877,10.000000000000009 -17.32050807568878,-9.999999999999986 Z" transform="translate(536.9357503463518,320)" fill="#b9cbe1" stroke="#000000" stroke-width="0.5"></path><path d="M0,-20 L17.32050807568877,-10.000000000000002 17.320508075688775,9.999999999999996 2.4492935982947065e-15,20 -17.32050807568877,10.000000000000009 -17.32050807568878,-9.999999999999986 Z" transform="translate(519.6152422706631,350)" fill="#edf2f7" stroke="#000000" stroke-width="0.5"></path><path d="M0,-20 L17.32050807568877,-10.000000000000002 17.320508075688775,9.999999999999996 2.4492935982947065e-15,20 -17.32050807568877,10.000000000000009 -17.32050807568878,-9.999999999999986 Z" transform="translate(554.2562584220407,50)" fill="#e5ebf4" stroke="#000000" stroke-width="0.5"></path><path d="M0,-20 L17.32050807568877,-10.000000000000002 17.320508075688775,9.999999999999996 2.4492935982947065e-15,20 -17.32050807568877,10.000000000000009 -17.32050807568878,-9.999999999999986 Z" transform="translate(571.5767664977294,80)" fill="#edf2f7" stroke="#000000" stroke-width="0.5"></path><path d="M0,-20 L17.32050807568877,-10.000000000000002 17.320508075688775,9.999999999999996 2.4492935982947065e-15,20 -17.32050807568877,10.000000000000009 -17.32050807568878,-9.999999999999986 Z" transform="translate(554.2562584220407,110)" fill="#b9cbe1" stroke="#000000" stroke-width="0.5"></path><path d="M0,-20 L17.32050807568877,-10.000000000000002 17.320508075688775,9.999999999999996 2.4492935982947065e-15,20 -17.32050807568877,10.000000000000009 -17.32050807568878,-9.999999999999986 Z" transform="translate(571.5767664977294,140)" fill="#c2d1e5" stroke="#000000" stroke-width="0.5"></path><path d="M0,-20 L17.32050807568877,-10.000000000000002 17.320508075688775,9.999999999999996 2.4492935982947065e-15,20 -17.32050807568877,10.000000000000009 -17.32050807568878,-9.999999999999986 Z" transform="translate(554.2562584220407,170)" fill="#7aa0c7" stroke="#000000" stroke-width="0.5"></path><path d="M0,-20 L17.32050807568877,-10.000000000000002 17.320508075688775,9.999999999999996 2.4492935982947065e-15,20 -17.32050807568877,10.000000000000009 -17.32050807568878,-9.999999999999986 Z" transform="translate(571.5767664977294,200)" fill="#a7bed9" stroke="#000000" stroke-width="0.5"></path><path d="M0,-20 L17.32050807568877,-10.000000000000002 17.320508075688775,9.999999999999996 2.4492935982947065e-15,20 -17.32050807568877,10.000000000000009 -17.32050807568878,-9.999999999999986 Z" transform="translate(554.2562584220407,230)" fill="#709ac3" stroke="#000000" stroke-width="0.5"></path><path d="M0,-20 L17.32050807568877,-10.000000000000002 17.320508075688775,9.999999999999996 2.4492935982947065e-15,20 -17.32050807568877,10.000000000000009 -17.32050807568878,-9.999999999999986 Z" transform="translate(571.5767664977294,260)" fill="#dce5f0" stroke="#000000" stroke-width="0.5"></path><path d="M0,-20 L17.32050807568877,-10.000000000000002 17.320508075688775,9.999999999999996 2.4492935982947065e-15,20 -17.32050807568877,10.000000000000009 -17.32050807568878,-9.999999999999986 Z" transform="translate(554.2562584220407,290)" fill="#cad8e8" stroke="#000000" stroke-width="0.5"></path><path d="M0,-20 L17.32050807568877,-10.000000000000002 17.320508075688775,9.999999999999996 2.4492935982947065e-15,20 -17.32050807568877,10.000000000000009 -17.32050807568878,-9.999999999999986 Z" transform="translate(571.5767664977294,320)" fill="#dce5f0" stroke="#000000" stroke-width="0.5"></path><path d="M0,-20 L17.32050807568877,-10.000000000000002 17.320508075688775,9.999999999999996 2.4492935982947065e-15,20 -17.32050807568877,10.000000000000009 -17.32050807568878,-9.999999999999986 Z" transform="translate(554.2562584220407,410)" fill="#edf2f7" stroke="#000000" stroke-width="0.5"></path><path d="M0,-20 L17.32050807568877,-10.000000000000002 17.320508075688775,9.999999999999996 2.4492935982947065e-15,20 -17.32050807568877,10.000000000000009 -17.32050807568878,-9.999999999999986 Z" transform="translate(588.8972745734183,110)" fill="#c2d1e5" stroke="#000000" stroke-width="0.5"></path><path d="M0,-20 L17.32050807568877,-10.000000000000002 17.320508075688775,9.999999999999996 2.4492935982947065e-15,20 -17.32050807568877,10.000000000000009 -17.32050807568878,-9.999999999999986 Z" transform="translate(606.217782649107,140)" fill="#f6f8fb" stroke="#000000" stroke-width="0.5"></path><path d="M0,-20 L17.32050807568877,-10.000000000000002 17.320508075688775,9.999999999999996 2.4492935982947065e-15,20 -17.32050807568877,10.000000000000009 -17.32050807568878,-9.999999999999986 Z" transform="translate(588.8972745734183,170)" fill="#cad8e8" stroke="#000000" stroke-width="0.5"></path><path d="M0,-20 L17.32050807568877,-10.000000000000002 17.320508075688775,9.999999999999996 2.4492935982947065e-15,20 -17.32050807568877,10.000000000000009 -17.32050807568878,-9.999999999999986 Z" transform="translate(588.8972745734183,230)" fill="#dce5f0" stroke="#000000" stroke-width="0.5"></path><path d="M0,-20 L17.32050807568877,-10.000000000000002 17.320508075688775,9.999999999999996 2.4492935982947065e-15,20 -17.32050807568877,10.000000000000009 -17.32050807568878,-9.999999999999986 Z" transform="translate(606.217782649107,260)" fill="#e5ebf4" stroke="#000000" stroke-width="0.5"></path><path d="M0,-20 L17.32050807568877,-10.000000000000002 17.320508075688775,9.999999999999996 2.4492935982947065e-15,20 -17.32050807568877,10.000000000000009 -17.32050807568878,-9.999999999999986 Z" transform="translate(588.8972745734183,290)" fill="#f6f8fb" stroke="#000000" stroke-width="0.5"></path><path d="M0,-20 L17.32050807568877,-10.000000000000002 17.320508075688775,9.999999999999996 2.4492935982947065e-15,20 -17.32050807568877,10.000000000000009 -17.32050807568878,-9.999999999999986 Z" transform="translate(588.8972745734183,350)" fill="#edf2f7" stroke="#000000" stroke-width="0.5"></path><path d="M0,-20 L17.32050807568877,-10.000000000000002 17.320508075688775,9.999999999999996 2.4492935982947065e-15,20 -17.32050807568877,10.000000000000009 -17.32050807568878,-9.999999999999986 Z" transform="translate(640.8587988004845,80)" fill="#edf2f7" stroke="#000000" stroke-width="0.5"></path><path d="M0,-20 L17.32050807568877,-10.000000000000002 17.320508075688775,9.999999999999996 2.4492935982947065e-15,20 -17.32050807568877,10.000000000000009 -17.32050807568878,-9.999999999999986 Z" transform="translate(623.5382907247957,110)" fill="#dce5f0" stroke="#000000" stroke-width="0.5"></path><path d="M0,-20 L17.32050807568877,-10.000000000000002 17.320508075688775,9.999999999999996 2.4492935982947065e-15,20 -17.32050807568877,10.000000000000009 -17.32050807568878,-9.999999999999986 Z" transform="translate(640.8587988004845,140)" fill="#f6f8fb" stroke="#000000" stroke-width="0.5"></path><path d="M0,-20 L17.32050807568877,-10.000000000000002 17.320508075688775,9.999999999999996 2.4492935982947065e-15,20 -17.32050807568877,10.000000000000009 -17.32050807568878,-9.999999999999986 Z" transform="translate(623.5382907247957,170)" fill="#d3deec" stroke="#000000" stroke-width="0.5"></path><path d="M0,-20 L17.32050807568877,-10.000000000000002 17.320508075688775,9.999999999999996 2.4492935982947065e-15,20 -17.32050807568877,10.000000000000009 -17.32050807568878,-9.999999999999986 Z" transform="translate(640.8587988004845,200)" fill="#f6f8fb" stroke="#000000" stroke-width="0.5"></path><path d="M0,-20 L17.32050807568877,-10.000000000000002 17.320508075688775,9.999999999999996 2.4492935982947065e-15,20 -17.32050807568877,10.000000000000009 -17.32050807568878,-9.999999999999986 Z" transform="translate(623.5382907247957,230)" fill="#cad8e8" stroke="#000000" stroke-width="0.5"></path><path d="M0,-20 L17.32050807568877,-10.000000000000002 17.320508075688775,9.999999999999996 2.4492935982947065e-15,20 -17.32050807568877,10.000000000000009 -17.32050807568878,-9.999999999999986 Z" transform="translate(640.8587988004845,260)" fill="#edf2f7" stroke="#000000" stroke-width="0.5"></path><path d="M0,-20 L17.32050807568877,-10.000000000000002 17.320508075688775,9.999999999999996 2.4492935982947065e-15,20 -17.32050807568877,10.000000000000009 -17.32050807568878,-9.999999999999986 Z" transform="translate(623.5382907247957,290)" fill="#f6f8fb" stroke="#000000" stroke-width="0.5"></path><path d="M0,-20 L17.32050807568877,-10.000000000000002 17.320508075688775,9.999999999999996 2.4492935982947065e-15,20 -17.32050807568877,10.000000000000009 -17.32050807568878,-9.999999999999986 Z" transform="translate(675.499814951862,80)" fill="#edf2f7" stroke="#000000" stroke-width="0.5"></path><path d="M0,-20 L17.32050807568877,-10.000000000000002 17.320508075688775,9.999999999999996 2.4492935982947065e-15,20 -17.32050807568877,10.000000000000009 -17.32050807568878,-9.999999999999986 Z" transform="translate(692.8203230275508,110)" fill="#f6f8fb" stroke="#000000" stroke-width="0.5"></path><path d="M0,-20 L17.32050807568877,-10.000000000000002 17.320508075688775,9.999999999999996 2.4492935982947065e-15,20 -17.32050807568877,10.000000000000009 -17.32050807568878,-9.999999999999986 Z" transform="translate(710.1408311032395,200)" fill="#f6f8fb" stroke="#000000" stroke-width="0.5"></path><path d="M0,-20 L17.32050807568877,-10.000000000000002 17.320508075688775,9.999999999999996 2.4492935982947065e-15,20 -17.32050807568877,10.000000000000009 -17.32050807568878,-9.999999999999986 Z" transform="translate(727.4613391789284,170)" fill="#f6f8fb" stroke="#000000" stroke-width="0.5"></path></g></g></svg>
